<svg width="40" height="40" viewBox="0 0 40 40" fill="none" xmlns="http://www.w3.org/2000/svg">
<g id="visual icon/40/location">
<rect width="40" height="40" rx="8" fill="#F8F8F8"/>
<g id="visual icon/40/">
<ellipse id="Ellipse 3021" cx="20" cy="30" rx="10" ry="4" fill="#91DF7E"/>
<path id="Subtract" fill-rule="evenodd" clip-rule="evenodd" d="M20 31C20 31 29 21.8148 29 16.4815C29 11.1481 25.4 7 20 7C14.6 7 11 11.1481 11 16.4815C11 21.8148 20 31 20 31ZM20 20C22.2091 20 24 18.2091 24 16C24 13.7909 22.2091 12 20 12C17.7909 12 16 13.7909 16 16C16 18.2091 17.7909 20 20 20Z" fill="#FF7878"/>
</g>
</g>
</svg>
