<svg width="32" height="32" viewBox="0 0 32 32" fill="none" xmlns="http://www.w3.org/2000/svg">
<rect width="32" height="32" rx="8" fill="white"/>
<path d="M15.1033 7.81699C15.4701 7.07374 16.5299 7.07374 16.8967 7.81699L18.7063 11.4835C18.8519 11.7786 19.1335 11.9832 19.4592 12.0305L23.5054 12.6185C24.3256 12.7376 24.6531 13.7456 24.0596 14.3242L21.1318 17.1781C20.8961 17.4079 20.7885 17.7389 20.8442 18.0632L21.5353 22.0931C21.6754 22.91 20.818 23.533 20.0844 23.1473L16.4653 21.2446C16.174 21.0915 15.826 21.0915 15.5347 21.2446L11.9156 23.1473C11.182 23.533 10.3246 22.91 10.4647 22.0931L11.1558 18.0632C11.2115 17.7389 11.1039 17.4079 10.8682 17.1781L7.94038 14.3242C7.34687 13.7456 7.67438 12.7376 8.4946 12.6185L12.5408 12.0305C12.8665 11.9832 13.1481 11.7786 13.2937 11.4835L15.1033 7.81699Z" fill="#FF9E0D"/>
<path d="M15.1033 7.81699C15.4701 7.07374 16.5299 7.07374 16.8967 7.81699L18.7063 11.4835C18.8519 11.7786 19.1335 11.9832 19.4592 12.0305L23.5054 12.6185C24.3256 12.7376 24.6531 13.7456 24.0596 14.3242L21.1318 17.1781C20.8961 17.4079 20.7885 17.7389 20.8442 18.0632L21.5353 22.0931C21.6754 22.91 20.818 23.533 20.0844 23.1473L16.4653 21.2446C16.174 21.0915 15.826 21.0915 15.5347 21.2446L11.9156 23.1473C11.182 23.533 10.3246 22.91 10.4647 22.0931L11.1558 18.0632C11.2115 17.7389 11.1039 17.4079 10.8682 17.1781L7.94038 14.3242C7.34687 13.7456 7.67438 12.7376 8.4946 12.6185L12.5408 12.0305C12.8665 11.9832 13.1481 11.7786 13.2937 11.4835L15.1033 7.81699Z" fill="url(#paint0_linear_3755_10033)" fill-opacity="0.5"/>
<path d="M9.3125 7.20605L11.5996 9.9126" stroke="#FF9E0D" stroke-width="0.5" stroke-linecap="round"/>
<path d="M9.3125 7.20605L11.5996 9.9126" stroke="url(#paint1_linear_3755_10033)" stroke-opacity="0.2" stroke-width="0.5" stroke-linecap="round"/>
<path d="M22.6504 7.08301L20.6523 9.9126" stroke="#FF9E0D" stroke-width="0.5" stroke-linecap="round"/>
<path d="M22.6504 7.08301L20.6523 9.9126" stroke="url(#paint2_linear_3755_10033)" stroke-opacity="0.2" stroke-width="0.5" stroke-linecap="round"/>
<path d="M8.95117 18.3154L5.65039 19.3911" stroke="#FF9E0D" stroke-width="0.5" stroke-linecap="round"/>
<path d="M8.95117 18.3154L5.65039 19.3911" stroke="url(#paint3_linear_3755_10033)" stroke-opacity="0.2" stroke-width="0.5" stroke-linecap="round"/>
<path d="M26.209 19.3916L23.1113 18.3159" stroke="#FF9E0D" stroke-width="0.5" stroke-linecap="round"/>
<path d="M26.209 19.3916L23.1113 18.3159" stroke="url(#paint4_linear_3755_10033)" stroke-opacity="0.2" stroke-width="0.5" stroke-linecap="round"/>
<path d="M16 23.4619L15.9996 26.8059" stroke="#FF9E0D" stroke-width="0.5" stroke-linecap="round"/>
<path d="M16 23.4619L15.9996 26.8059" stroke="url(#paint5_linear_3755_10033)" stroke-opacity="0.2" stroke-width="0.5" stroke-linecap="round"/>
<defs>
<linearGradient id="paint0_linear_3755_10033" x1="10.2183" y1="6" x2="22.8662" y2="26.5285" gradientUnits="userSpaceOnUse">
<stop stop-color="#FFE70F"/>
<stop offset="1" stop-color="#FF5A13" stop-opacity="0"/>
</linearGradient>
<linearGradient id="paint1_linear_3755_10033" x1="10.4561" y1="8.55933" x2="9.69225" y2="9.20477" gradientUnits="userSpaceOnUse">
<stop stop-color="#FFD706"/>
<stop offset="1" stop-color="#FF7A00" stop-opacity="0"/>
</linearGradient>
<linearGradient id="paint2_linear_3755_10033" x1="21.6514" y1="8.4978" x2="20.8345" y2="7.92099" gradientUnits="userSpaceOnUse">
<stop stop-color="#FFD706"/>
<stop offset="1" stop-color="#FF7A00" stop-opacity="0"/>
</linearGradient>
<linearGradient id="paint3_linear_3755_10033" x1="7.30078" y1="18.8533" x2="6.99093" y2="17.9025" gradientUnits="userSpaceOnUse">
<stop stop-color="#FFD706"/>
<stop offset="1" stop-color="#FF7A00" stop-opacity="0"/>
</linearGradient>
<linearGradient id="paint4_linear_3755_10033" x1="24.6602" y1="18.8538" x2="24.9882" y2="17.9091" gradientUnits="userSpaceOnUse">
<stop stop-color="#FFD706"/>
<stop offset="1" stop-color="#FF7A00" stop-opacity="0"/>
</linearGradient>
<linearGradient id="paint5_linear_3755_10033" x1="15.9998" y1="25.1339" x2="14.9998" y2="25.1338" gradientUnits="userSpaceOnUse">
<stop stop-color="#FFD706"/>
<stop offset="1" stop-color="#FF7A00" stop-opacity="0"/>
</linearGradient>
</defs>
</svg>
