<svg width="40" height="40" viewBox="0 0 40 40" fill="none" xmlns="http://www.w3.org/2000/svg">
<g id="visual icon/40/bluetooth">
<rect width="40" height="40" rx="8" fill="#F8F8F8"/>
<g id="visual icon/40/bluetooth_2">
<rect id="Rectangle 17244" x="8" y="6" width="17" height="28" rx="8.5" fill="#4EA4F3"/>
<path id="Vector 727" d="M13 16.08L20 23.64L16.75 27V13L20 16.36L13 23.92" stroke="white" stroke-width="1.5" stroke-linecap="round" stroke-linejoin="round"/>
<path id="Ellipse 3024" d="M27.9194 15.5806C28.4998 16.1609 28.9602 16.8499 29.2742 17.6082C29.5883 18.3665 29.75 19.1792 29.75 20C29.75 20.8208 29.5883 21.6335 29.2742 22.3918C28.9602 23.1501 28.4998 23.8391 27.9194 24.4194" stroke="#4EA4F3" stroke-width="1.5" stroke-linecap="round"/>
<path id="Ellipse 3025" d="M29.955 12.045C30.9996 13.0897 31.8283 14.3299 32.3936 15.6948C32.959 17.0597 33.25 18.5226 33.25 20C33.25 21.4774 32.959 22.9403 32.3936 24.3052C31.8283 25.6701 30.9996 26.9103 29.955 27.955" stroke="#4EA4F3" stroke-width="1.5" stroke-linecap="round"/>
</g>
</g>
</svg>
