<svg width="40" height="40" viewBox="0 0 40 40" fill="none" xmlns="http://www.w3.org/2000/svg">
<rect width="40" height="40" rx="8" fill="#fff"/>
<rect width="16.8119" height="16.6534" rx="6" transform="matrix(0.968609 -0.248588 0.267128 0.963661 5 12.1792)" fill="#E0CDFF"/>
<rect x="11.2188" y="12.4438" width="20.7818" height="20.556" rx="7" fill="#B486FF"/>
<path d="M24.9283 27.1117L22.1774 25.3344C21.4941 24.8925 20.9883 23.9222 20.9883 23.0672V19.1282C20.9883 18.7344 21.29 18.4077 21.6538 18.4077C22.0177 18.4077 22.3194 18.7344 22.3194 19.1282V23.0672C22.3194 23.413 22.5856 23.9222 22.8607 24.0951L25.6116 25.8724C25.931 26.0742 26.0286 26.5161 25.8423 26.862C25.7092 27.0925 25.4873 27.2174 25.2655 27.2174C25.1501 27.2174 25.0348 27.1886 24.9283 27.1117Z" fill="white"/>
</svg>
