<svg width="64" height="64" viewBox="0 0 64 64" fill="none" xmlns="http://www.w3.org/2000/svg">
<g style="mix-blend-mode:luminosity">
<rect width="64" height="64" rx="16" fill="white"/>
<mask id="mask0_4384_7813" style="mask-type:alpha" maskUnits="userSpaceOnUse" x="0" y="0" width="64" height="64">
<rect width="64" height="64" rx="16" fill="#EEEEEE"/>
</mask>
<g mask="url(#mask0_4384_7813)">
<path d="M32.0878 63.5761C28.0243 63.5761 24.7344 60.2717 24.7344 56.1903V40.472H39.4413V56.1903C39.4413 60.2717 36.1513 63.5761 32.0878 63.5761Z" fill="#F3A396"/>
<path d="M24.7344 43.1066C24.7344 43.1066 28.7801 50.6621 33.4038 50.287C40.5527 49.7154 39.3701 40.8203 39.3701 40.8203C39.3701 40.8203 36.5959 46.7593 32.2123 46.7593C27.3219 46.7593 24.7344 43.1066 24.7344 43.1066Z" fill="#1A1A1A"/>
<path d="M19.7051 65.8261L27.2275 56.7345L32.4025 64.0221L37.2218 56.7345L46.1313 65.8261H19.7051Z" fill="#EEEEEE"/>
<path d="M32.1554 63.5753L28.652 57.413C28.0741 56.3949 27.2827 55.5107 26.3313 54.832L24.5529 53.5549C24.1795 53.287 23.6816 53.2602 23.2814 53.4924L21.4853 54.5284C21.0674 54.7695 20.8451 55.2339 20.8984 55.7072L21.6365 61.4587C21.7076 62.0302 22.4011 62.2535 22.8013 61.8427L26.7225 57.7256C26.9448 57.4934 27.3183 57.5291 27.4961 57.7881L32.1643 64.6023V63.5753H32.1554Z" fill="#289DE5"/>
<path d="M32.1573 63.5753L35.6607 57.413C36.2386 56.3949 37.03 55.5107 37.9814 54.832L39.7598 53.5549C40.1332 53.287 40.6311 53.2602 41.0313 53.4924L42.8274 54.5284C43.2453 54.7695 43.4676 55.2339 43.4143 55.7072L42.6762 61.4587C42.6051 62.0302 41.9115 62.2535 41.5114 61.8427L37.5902 57.7256C37.3679 57.4934 36.9944 57.5291 36.8166 57.7881L32.1484 64.6023V63.5753H32.1573Z" fill="#289DE5"/>
<path d="M44.2904 20.8421C43.6857 18.6541 42.2719 15.5551 37.2214 13.2509C28.881 9.43746 23.2526 17.5377 23.2526 17.5377C21.0029 17.2966 19.7848 18.1629 19.2957 20.1991C18.8778 21.9406 19.438 25.3343 19.7492 26.6382L21.412 35.4887L23.0214 27.6296C24.5952 22.4586 26.996 20.3599 26.996 20.3599L34.6251 19.7526L42.7076 34.7385L44.2815 25.8702C44.4771 24.7449 44.566 23.6018 44.5038 22.4586C44.4682 21.7977 44.406 21.2262 44.2993 20.8511L44.2904 20.8421Z" fill="#1A1A1A"/>
<path d="M42.4916 32.9247C42.4916 32.9247 43.4875 31.335 45.5326 32.1209C47.5866 32.8979 46.6529 37.8992 43.5764 38.5422C43.5764 38.5422 42.4738 38.7833 41.6113 38.0242C41.6113 38.0242 42.3671 34.3268 42.4827 32.9247H42.4916Z" fill="#F3A396"/>
<path d="M45.1354 33.8801C45.1354 33.8801 43.4193 33.3085 42.2012 35.8449" stroke="#D26665" stroke-width="0.149541" stroke-linecap="round" stroke-linejoin="round"/>
<path d="M43.0371 34.6035C43.0371 34.6035 44.9044 35.6038 43.6684 37.1131" stroke="#D26665" stroke-width="0.149541" stroke-linecap="round" stroke-linejoin="round"/>
<path d="M21.5102 32.9247C21.5102 32.9247 20.5143 31.335 18.4692 32.1209C16.4152 32.8979 17.3489 37.8992 20.4254 38.5422C20.4254 38.5422 21.528 38.7833 22.3905 38.0242C22.3905 38.0242 21.6347 34.3268 21.5191 32.9247H21.5102Z" fill="#F3A396"/>
<path d="M18.8789 33.8817C18.8789 33.8817 20.595 33.3101 21.8132 35.8465" stroke="#D26665" stroke-width="0.149541" stroke-linecap="round" stroke-linejoin="round"/>
<path d="M20.9779 34.6051C20.9779 34.6051 19.1107 35.6054 20.3466 37.1147" stroke="#D26665" stroke-width="0.149541" stroke-linecap="round" stroke-linejoin="round"/>
<path d="M42.6994 28.174C42.6994 31.1926 42.406 37.4978 40.5565 41.2398C38.8226 44.7586 35.9595 46.643 32.1983 46.7591C28.4371 46.8752 25.6451 45.4195 23.4044 40.8558C21.1636 36.2921 21.2703 28.2276 21.2703 28.2276C21.2703 28.2276 21.2703 17.457 31.8693 17.457C43.0284 17.457 42.6994 28.174 42.6994 28.174Z" fill="#F3A396"/>
<path d="M41.7388 18.8058C41.4632 18.8951 32.5537 16.4213 32.5537 16.4213L24.7379 18.8058C24.7379 18.8058 24.7379 18.8058 24.7379 18.8147C17.8646 20.6813 20.8966 27.2186 20.8966 27.2186C23.7242 25.7629 23.5197 22.7711 24.0532 20.6188C25.3069 22.271 30.0907 25.2806 35.9859 25.1645C42.0234 25.0484 42.708 22.6907 42.708 22.6907C42.708 22.6907 42.0145 18.7165 41.7388 18.8058Z" fill="#1A1A1A"/>
<path d="M31.2383 31.1216V35.9264C31.2383 36.0335 31.2561 36.1318 31.3005 36.23C31.4517 36.5962 31.8696 36.7748 32.2519 36.6766L33.0789 36.4533" stroke="#D26665" stroke-width="0.149541" stroke-linecap="round" stroke-linejoin="round"/>
<path d="M28.1265 31.5165C28.1265 32.0702 27.6819 32.5167 27.1306 32.5167C26.5794 32.5167 26.1348 32.0702 26.1348 31.5165C26.1348 30.9628 26.5794 30.5162 27.1306 30.5162C27.6819 30.5162 28.1265 30.9628 28.1265 31.5165Z" fill="#1A1A1A"/>
<path d="M29.1316 29.0953L29.1672 27.1841L25.6372 27.2466C25.1926 27.2466 24.7658 27.4163 24.419 27.7021L22.3828 29.4168L25.3526 28.9702L29.1227 29.0863L29.1316 29.0953Z" fill="#1A1A1A"/>
<path d="M35.248 31.5147C35.248 32.0684 35.6926 32.5149 36.2439 32.5149C36.7952 32.5149 37.2398 32.0684 37.2398 31.5147C37.2398 30.9609 36.7952 30.5144 36.2439 30.5144C35.6926 30.5144 35.248 30.9609 35.248 31.5147Z" fill="#1A1A1A"/>
<path d="M34.2348 29.0953L34.1992 27.1841L37.7292 27.2466C38.1738 27.2466 38.6006 27.4163 38.9474 27.7021L40.9836 29.4168L38.0138 28.9702L34.2437 29.0863L34.2348 29.0953Z" fill="#1A1A1A"/>
<path d="M29.0078 39.777H34.4851" stroke="#D26665" stroke-width="0.149541" stroke-linecap="round" stroke-linejoin="round"/>
<path d="M30.4375 41.4287C30.4375 41.4287 31.6023 41.7949 33.0517 41.4287" stroke="#D26665" stroke-width="0.110661" stroke-linecap="round" stroke-linejoin="round"/>
</g>
</g>
</svg>
