<svg width="40" height="36" viewBox="0 0 40 36" fill="none" xmlns="http://www.w3.org/2000/svg">
<mask id="path-1-inside-1_1290_3070" fill="white">
<path fill-rule="evenodd" clip-rule="evenodd" d="M10.84 18.5741C10.84 23.8721 15.0219 28.1811 20.1629 28.1811L20.1682 28.1793C25.3091 28.1793 29.491 23.8492 29.491 18.5248V12.0755C29.491 7.40158 25.6882 3.59864 21.0144 3.59864H16.7761C14.9337 3.59864 13.92 3.59864 11.4182 1.28197L10.4133 0.351074L10.029 1.66456C9.31142 4.11522 9.14746 4.88568 9.14746 5.78132C9.1492 6.90812 9.72421 8.24921 10.8375 9.31862V14.6201H10.84V18.5741ZM12.5336 13.7698H12.536V18.5741C12.536 22.936 15.958 26.485 20.1646 26.485C24.3712 26.485 27.7932 22.9148 27.7932 18.5248V12.0755C27.7932 8.336 24.752 5.29471 21.0126 5.29471H16.7743C14.8703 5.29471 13.4986 5.19245 11.2913 3.41528C10.914 4.77813 10.8417 5.27003 10.8417 5.77956C10.8417 7.0472 12.3809 9.53136 15.9281 9.53136V11.2274C14.6108 11.2274 13.4767 10.9465 12.5336 10.4916V13.7698Z"/>
</mask>
<path fill-rule="evenodd" clip-rule="evenodd" d="M10.84 18.5741C10.84 23.8721 15.0219 28.1811 20.1629 28.1811L20.1682 28.1793C25.3091 28.1793 29.491 23.8492 29.491 18.5248V12.0755C29.491 7.40158 25.6882 3.59864 21.0144 3.59864H16.7761C14.9337 3.59864 13.92 3.59864 11.4182 1.28197L10.4133 0.351074L10.029 1.66456C9.31142 4.11522 9.14746 4.88568 9.14746 5.78132C9.1492 6.90812 9.72421 8.24921 10.8375 9.31862V14.6201H10.84V18.5741ZM12.5336 13.7698H12.536V18.5741C12.536 22.936 15.958 26.485 20.1646 26.485C24.3712 26.485 27.7932 22.9148 27.7932 18.5248V12.0755C27.7932 8.336 24.752 5.29471 21.0126 5.29471H16.7743C14.8703 5.29471 13.4986 5.19245 11.2913 3.41528C10.914 4.77813 10.8417 5.27003 10.8417 5.77956C10.8417 7.0472 12.3809 9.53136 15.9281 9.53136V11.2274C14.6108 11.2274 13.4767 10.9465 12.5336 10.4916V13.7698Z" fill="#666666"/>
<path d="M20.1629 28.1811V28.3811H20.1954L20.2262 28.3708L20.1629 28.1811ZM20.1682 28.1793V27.9793H20.1356L20.1048 27.9896L20.1682 28.1793ZM11.4182 1.28197L11.2823 1.4287L11.2824 1.42872L11.4182 1.28197ZM10.4133 0.351074L10.5492 0.204352L10.3121 -0.0152824L10.2214 0.294907L10.4133 0.351074ZM10.029 1.66456L10.2209 1.72076L10.2209 1.72073L10.029 1.66456ZM9.14746 5.78132H8.94746L8.94746 5.78163L9.14746 5.78132ZM10.8375 9.31862H11.0375V9.23341L10.9761 9.17438L10.8375 9.31862ZM10.8375 14.6201H10.6375V14.8201H10.8375V14.6201ZM10.84 14.6201H11.04V14.4201H10.84V14.6201ZM12.5336 13.7698H12.3336V13.9698H12.5336V13.7698ZM12.536 13.7698H12.736V13.5698H12.536V13.7698ZM11.2913 3.41528L11.4167 3.2595L11.1797 3.06869L11.0986 3.36192L11.2913 3.41528ZM15.9281 9.53136H16.1281V9.33136H15.9281V9.53136ZM15.9281 11.2274V11.4274H16.1281V11.2274H15.9281ZM12.5336 10.4916L12.6204 10.3115L12.3336 10.1731V10.4916H12.5336ZM20.1629 27.9811C15.1379 27.9811 11.04 23.7674 11.04 18.5741H10.64C10.64 23.9769 14.9058 28.3811 20.1629 28.3811V27.9811ZM20.1048 27.9896L20.0995 27.9914L20.2262 28.3708L20.2315 28.369L20.1048 27.9896ZM29.291 18.5248C29.291 23.7454 25.1922 27.9793 20.1682 27.9793V28.3793C25.4261 28.3793 29.691 23.953 29.691 18.5248H29.291ZM29.291 12.0755V18.5248H29.691V12.0755H29.291ZM21.0144 3.79864C25.5777 3.79864 29.291 7.51203 29.291 12.0755H29.691C29.691 7.29112 25.7987 3.39864 21.0144 3.39864V3.79864ZM16.7761 3.79864H21.0144V3.39864H16.7761V3.79864ZM11.2824 1.42872C12.5409 2.59415 13.4429 3.19408 14.2761 3.49702C15.1105 3.80041 15.8592 3.79864 16.7761 3.79864V3.39864C15.8506 3.39864 15.1712 3.39687 14.4128 3.1211C13.6531 2.84487 12.7973 2.28647 11.5541 1.13523L11.2824 1.42872ZM10.2774 0.497796L11.2823 1.4287L11.5542 1.13525L10.5492 0.204352L10.2774 0.497796ZM10.2209 1.72073L10.6053 0.407241L10.2214 0.294907L9.83702 1.60839L10.2209 1.72073ZM9.34746 5.78132C9.34746 4.91871 9.50231 4.17502 10.2209 1.72076L9.83703 1.60836C9.12054 4.05542 8.94746 4.85265 8.94746 5.78132H9.34746ZM10.9761 9.17438C9.89519 8.13613 9.3491 6.84478 9.34746 5.78101L8.94746 5.78163C8.9493 6.97146 9.55323 8.36229 10.699 9.46285L10.9761 9.17438ZM10.6375 9.31862V14.6201H11.0375V9.31862H10.6375ZM10.8375 14.8201H10.84V14.4201H10.8375V14.8201ZM11.04 18.5741V14.6201H10.64V18.5741H11.04ZM12.5336 13.9698H12.536V13.5698H12.5336V13.9698ZM12.336 13.7698V18.5741H12.736V13.7698H12.336ZM12.336 18.5741C12.336 23.0395 15.8408 26.685 20.1646 26.685V26.285C16.0753 26.285 12.736 22.8324 12.736 18.5741H12.336ZM20.1646 26.685C24.4896 26.685 27.9932 23.0172 27.9932 18.5248H27.5932C27.5932 22.8124 24.2528 26.285 20.1646 26.285V26.685ZM27.9932 18.5248V12.0755H27.5932V18.5248H27.9932ZM27.9932 12.0755C27.9932 8.22555 24.8625 5.09471 21.0126 5.09471V5.49471C24.6416 5.49471 27.5932 8.44645 27.5932 12.0755H27.9932ZM21.0126 5.09471H16.7743V5.49471H21.0126V5.09471ZM16.7743 5.09471C15.8237 5.09471 15.0295 5.06852 14.2021 4.8293C13.3771 4.59079 12.5056 4.13617 11.4167 3.2595L11.1659 3.57107C12.2843 4.47157 13.2023 4.95666 14.091 5.21357C14.9772 5.46978 15.8209 5.49471 16.7743 5.49471V5.09471ZM11.0986 3.36192C10.7203 4.72832 10.6417 5.24177 10.6417 5.77956H11.0417C11.0417 5.29828 11.1077 4.82795 11.4841 3.46864L11.0986 3.36192ZM10.6417 5.77956C10.6417 7.1689 12.282 9.73136 15.9281 9.73136V9.33136C12.4797 9.33136 11.0417 6.9255 11.0417 5.77956H10.6417ZM15.7281 9.53136V11.2274H16.1281V9.53136H15.7281ZM15.9281 11.0274C14.6398 11.0274 13.5356 10.7528 12.6204 10.3115L12.4467 10.6717C13.4179 11.1401 14.5817 11.4274 15.9281 11.4274V11.0274ZM12.7336 13.7698V10.4916H12.3336V13.7698H12.7336Z" fill="white" mask="url(#path-1-inside-1_1290_3070)"/>
<path d="M4.21498 38.9787H2.8418V38.9987C2.8418 35.5715 5.15565 32.571 8.4687 31.6989L14.8564 30.0174C15.4588 29.8589 15.8799 29.3137 15.8799 28.6899V25.8936L17.2531 26.5289L17.2531 28.6899C17.2531 29.936 16.4109 31.028 15.2076 31.3449L8.81984 33.0264C6.10774 33.7401 4.21498 36.1967 4.21498 39.0001V38.9802V38.9787Z" fill="#666666"/>
<path d="M37.1574 38.9782H35.7842V38.9982C35.7842 36.1947 33.8914 33.7381 31.1793 33.0244L24.7916 31.3429C23.5868 31.026 22.7461 29.9341 22.7461 28.6879V26.456L24.1193 25.8916V28.6879C24.1193 29.3117 24.5404 29.857 25.1427 30.0154L31.5305 31.6969C34.8435 32.5691 37.1574 35.571 37.1574 38.9968V38.9768V38.9782Z" fill="#666666"/>
<path d="M32.3434 11.2551L35.8833 10.2267" stroke="#222222" stroke-width="1.5"/>
<path d="M32.4512 20.0176L36.2259 20.6832" stroke="#222222" stroke-width="1.5"/>
<circle cx="20.2438" cy="13.741" r="5.375" fill="white" stroke="#222222" stroke-width="1.25"/>
<circle opacity="0.1" cx="20.2438" cy="13.741" r="6" fill="#222222"/>
<circle cx="20.2438" cy="13.741" r="1.25" fill="#222222"/>
<path d="M6.50916 11.2551L2.9692 10.2267" stroke="#222222" stroke-width="1.5"/>
<path d="M6.40137 20.0176L2.62659 20.6832" stroke="#222222" stroke-width="1.5"/>
</svg>
