<svg width="16" height="16" viewBox="0 0 16 16" fill="none" xmlns="http://www.w3.org/2000/svg">
<g clip-path="url(#clip0_4139_31266)">
<path d="M10.6951 2.80078C9.71147 2.80078 8.64262 3.23543 8.00656 4.11102C7.37049 3.23543 6.30164 2.80078 5.31803 2.80078C3.54754 2.80078 2.03279 4.16771 2 6.10787C2.00656 6.29684 2.02623 6.56141 2.03934 6.69999C2.34098 9.0559 4.83934 11.2795 7.29836 12.9803C7.5082 13.1252 7.75738 13.2008 8 13.2008C8.24918 13.2008 8.4918 13.1252 8.70164 12.9803C11.1672 11.2795 13.6656 9.0622 13.9607 6.69999C13.9803 6.56141 13.9934 6.29684 14 6.10787C13.9803 4.16771 12.4656 2.80078 10.6951 2.80078Z" fill="#FF5858"/>
</g>
<defs>
<clipPath id="clip0_4139_31266">
<rect width="16" height="16" fill="white"/>
</clipPath>
</defs>
</svg>
