<svg width="16" height="16" viewBox="0 0 16 16" fill="none" xmlns="http://www.w3.org/2000/svg">
<g id="ic">
<path id="Vector" d="M11.0267 9.94412L9.6963 11.3324C7.77503 10.1487 6.16042 8.51759 4.98658 6.5746L6.57646 5.17286C6.70197 5.06322 6.78964 4.91584 6.82673 4.75221C6.86382 4.58857 6.84836 4.4172 6.78264 4.26307L5.69833 1.72247C5.63909 1.58131 5.53985 1.46111 5.41314 1.37713C5.28644 1.29315 5.13799 1.24918 4.98658 1.25073H2.52523C2.38919 1.24502 2.25352 1.26797 2.12668 1.31811C1.99984 1.36824 1.88458 1.44446 1.78831 1.54199C1.69203 1.63952 1.61676 1.75624 1.56727 1.88474C1.51778 2.01324 1.49521 2.15072 1.50085 2.28853C1.50085 9.02758 6.92903 14.749 13.4748 14.749C13.6108 14.7547 13.7465 14.7318 13.8733 14.6817C14.0002 14.6316 14.1154 14.5553 14.2117 14.4578C14.308 14.3602 14.3832 14.2436 14.4327 14.1151C14.4821 13.9866 14.5048 13.849 14.4992 13.7112V11.3121C14.4998 11.1528 14.4524 10.997 14.3632 10.8657C14.2741 10.7344 14.1474 10.6339 14.0002 10.5776L11.8583 9.74866C11.7163 9.69292 11.5611 9.68176 11.4128 9.71662C11.2645 9.75147 11.13 9.83075 11.0267 9.94412Z" stroke="#444444" stroke-width="1.5"/>
</g>
</svg>
