<svg width="20" height="20" viewBox="0 0 20 20" fill="none" xmlns="http://www.w3.org/2000/svg">
<g id="gift">
<path id="Vector" d="M16.6673 10V18.3333H3.33398V10" stroke="#888888" stroke-width="1.25" stroke-linecap="round" stroke-linejoin="round"/>
<path id="Vector_2" d="M18.3335 5.83331H1.66682V9.99998H18.3335V5.83331Z" stroke="#888888" stroke-width="1.25" stroke-linecap="round" stroke-linejoin="round"/>
<path id="Vector_3" d="M10.0002 18.3333V5.83331" stroke="#888888" stroke-width="1.25" stroke-linecap="round" stroke-linejoin="round"/>
<path id="Vector_4" d="M10.0002 5.83335H6.25016C5.69762 5.83335 5.16772 5.61386 4.77702 5.22316C4.38632 4.83246 4.16682 4.30255 4.16682 3.75002C4.16682 3.19749 4.38632 2.66758 4.77702 2.27688C5.16772 1.88618 5.69762 1.66669 6.25016 1.66669C9.16682 1.66669 10.0002 5.83335 10.0002 5.83335Z" stroke="#888888" stroke-width="1.25" stroke-linecap="round" stroke-linejoin="round"/>
<path id="Vector_5" d="M10.0002 5.83335H13.7502C14.3027 5.83335 14.8326 5.61386 15.2233 5.22316C15.614 4.83246 15.8335 4.30255 15.8335 3.75002C15.8335 3.19749 15.614 2.66758 15.2233 2.27688C14.8326 1.88618 14.3027 1.66669 13.7502 1.66669C10.8335 1.66669 10.0002 5.83335 10.0002 5.83335Z" stroke="#888888" stroke-width="1.25" stroke-linecap="round" stroke-linejoin="round"/>
</g>
</svg>
