<svg width="40" height="40" viewBox="0 0 40 40" fill="none" xmlns="http://www.w3.org/2000/svg">
<rect width="40" height="40" rx="8" fill="#fff"/>
<path d="M10.6654 22.3333C9.38203 22.3333 8.33203 23.3833 8.33203 24.6666V31.6666H16.1137V22.3333H10.6654Z" fill="#AE9679"/>
<path d="M18.4349 17.6667C17.1516 17.6667 16.1016 18.7167 16.1016 20.0001V31.6667H23.8832V20.0001C23.8832 18.7167 22.8449 17.6667 21.5499 17.6667H18.4349Z" fill="#FFCF53"/>
<path d="M23.8867 25.8333V31.6666H31.6684V28.1666C31.6684 26.8833 30.6184 25.8333 29.335 25.8333H23.8867Z" fill="#AE9679"/>
<path d="M23.896 10.4916C23.7793 10.1182 23.4176 9.84992 22.9043 9.76825L21.7843 9.58158C21.7376 9.56991 21.6326 9.49989 21.6093 9.45323L20.991 8.21656C20.5243 7.27156 19.4626 7.27156 18.996 8.21656L18.3776 9.45323C18.3543 9.49989 18.2493 9.56991 18.2026 9.58158L17.0826 9.76825C16.5693 9.84992 16.2193 10.1182 16.091 10.4916C15.9743 10.8649 16.1143 11.2966 16.476 11.6582L17.3393 12.5332C17.3743 12.5682 17.421 12.7082 17.4093 12.7549L17.1643 13.8282C16.9776 14.6216 17.281 14.9832 17.4793 15.1349C17.6776 15.2749 18.1093 15.4616 18.821 15.0416L19.871 14.4232C19.9176 14.3882 20.0693 14.3882 20.116 14.4232L21.166 15.0416C21.4926 15.2399 21.761 15.2982 21.971 15.2982C22.216 15.2982 22.391 15.2049 22.496 15.1349C22.6943 14.9949 22.9976 14.6332 22.811 13.8282L22.566 12.7549C22.5543 12.6966 22.5893 12.5682 22.636 12.5332L23.511 11.6582C23.8726 11.2966 24.0126 10.8649 23.896 10.4916Z" fill="#FFCF53"/>
</svg>
