<svg width="40" height="40" viewBox="0 0 40 40" fill="none" xmlns="http://www.w3.org/2000/svg">
<g id="icon/40/no bell">
<g id="no bell">
<rect id="Rectangle 17256" x="15.0537" y="4" width="5.02703" height="6.7027" rx="2.51351" fill="#FFCE1F"/>
<rect id="Rectangle 17258" x="13.3779" y="26.6211" width="8.37838" height="8.37838" rx="4.18919" fill="#E29A1B"/>
<path id="Rectangle 17255" d="M8.34945 16.5678C8.34945 11.4778 12.4757 7.35156 17.5657 7.35156C22.6556 7.35156 26.7819 11.4778 26.7819 16.5678V21.2795C26.7819 23.6596 27.5538 25.9754 28.9819 27.8795L29.2954 28.2975H5.83594L6.14945 27.8795C7.57749 25.9754 8.34945 23.6596 8.34945 21.2795V16.5678Z" fill="#FFDF38"/>
<rect id="Rectangle 17257" x="4.99805" y="26.6211" width="25.1351" height="4.18919" rx="2.09459" fill="#FFCE1F"/>
<circle id="Ellipse 1184" cx="28.4557" cy="29.1344" r="5.86486" fill="#F77A74"/>
<path id="Vector 34" d="M26.3643 27.041L30.5534 31.2302" stroke="white" stroke-linecap="round"/>
<path id="Vector 35" d="M30.5534 27.041L26.3643 31.2302" stroke="white" stroke-linecap="round"/>
</g>
</g>
</svg>
