<svg width="64" height="64" viewBox="0 0 64 64" fill="none" xmlns="http://www.w3.org/2000/svg">
<rect width="64" height="64" rx="16" fill="white"/>
<mask id="mask0_4384_8722" style="mask-type:alpha" maskUnits="userSpaceOnUse" x="0" y="0" width="64" height="64">
<rect width="64" height="64" rx="16" fill="white"/>
</mask>
<g mask="url(#mask0_4384_8722)">
<path d="M58.2241 48.2717C57.5616 43.7863 53.3882 40.6877 48.9028 41.3502C48.8435 41.3593 48.7868 41.3709 48.7288 41.3812C48.1359 40.8295 47.4657 40.3616 46.7361 39.9917C46.0969 37.1871 46.0504 34.0834 45.8893 32.0791C45.4331 26.417 44.1751 19.1501 38.6805 15.8544C35.4969 13.9455 31.0205 13.9519 27.6978 15.7371C22.7625 18.3896 21.52 23.9165 21.1192 29.0566C20.8911 31.985 20.8988 34.9237 20.815 37.8599C19.6589 37.2902 18.3596 36.9692 16.9844 36.9692C12.1922 36.9692 8.3062 40.854 8.3062 45.6474C8.3062 46.9428 8.59233 48.1698 9.10016 49.2744C8.06904 49.924 7.20805 50.8289 6.63707 52.0443C4.28224 57.0478 8.83465 62.8969 14.0844 62.8801C15.4764 66.3976 19.1446 68.63 23.0487 68.0525C23.2188 68.0267 23.3877 67.9958 23.5539 67.961C25.3623 71.0918 28.9506 72.9645 32.7451 72.4052C36.2264 71.8909 38.9512 69.4626 40.0145 66.346C41.5999 67.1155 43.4237 67.4326 45.2977 67.1554C50.1556 66.4375 53.5403 61.9985 52.9912 57.1561C56.537 55.8285 58.8003 52.168 58.2254 48.2717H58.2241Z" fill="#602826"/>
<path d="M33.7273 55.6752C30.9195 55.6752 25.4804 54.8126 27.249 50.1239C29.0176 45.4351 28.6395 39.769 28.6395 39.769H38.8075C38.8075 39.769 38.0556 45.6669 39.7345 49.1969C41.4133 52.7269 36.5275 55.6752 33.7197 55.6752H33.7273Z" fill="#F4A293"/>
<path d="M28.6395 42.3396C28.6395 42.3396 30.3839 46.4864 33.3525 47.3586C34.1481 47.5881 34.9897 47.5116 35.7548 47.198C36.8718 46.7389 38.7439 45.435 38.6584 43.581C38.5193 40.5682 39.4463 41.727 39.4463 41.727C39.4463 41.727 34.0257 46.2033 28.6395 42.332V42.3396Z" fill="#1A1A1A"/>
<path d="M43.3421 27.4973C43.3421 31.514 42.7836 34.9875 42.2251 37.4511C41.6818 39.8611 40.144 41.5443 37.9635 42.8985L37.5657 43.1433C35.2628 44.5817 32.2942 44.6123 29.9607 43.2275C27.6043 41.835 25.9593 39.9912 25.4467 37.4052C24.521 32.6999 24.4215 27.4897 24.4215 27.4897C24.4215 27.4897 23.5417 17.3446 33.7403 17.5359C43.9388 17.7348 43.3344 27.4897 43.3344 27.4897L43.3421 27.4973Z" fill="#F4A293"/>
<path d="M25.1404 37.1835C23.2277 38.5913 19.9226 32.1798 21.7894 30.6573C23.6485 29.1348 24.7579 32.0574 24.7579 32.0574L25.041 33.8707L25.5 36.4184L25.5765 36.954L25.1481 37.1759L25.1404 37.1835Z" fill="#F4A293"/>
<path d="M22.3918 32.593C22.3918 32.593 23.7767 32.1339 24.756 34.169" stroke="#D36563" stroke-width="0.268511" stroke-linecap="round" stroke-linejoin="round"/>
<path d="M24.0828 33.1747C24.0828 33.1747 22.5756 33.978 23.5702 35.1945" stroke="#D36563" stroke-width="0.268511" stroke-linecap="round" stroke-linejoin="round"/>
<path d="M42.6621 37.183C44.5748 38.5908 47.8799 32.1794 46.0131 30.6568C44.154 29.1343 43.1288 31.9192 43.1288 31.9192L42.7233 33.7937L42.2642 36.4333L42.1801 36.9535L42.6544 37.1754L42.6621 37.183Z" fill="#F4A293"/>
<path d="M45.4099 32.5926C45.4099 32.5926 44.0251 32.1335 43.0458 34.1687" stroke="#D36563" stroke-width="0.268511" stroke-linecap="round" stroke-linejoin="round"/>
<path d="M43.7196 33.1741C43.7196 33.1741 45.2268 33.9774 44.2322 35.1939" stroke="#D36563" stroke-width="0.268511" stroke-linecap="round" stroke-linejoin="round"/>
<path d="M33.0361 32.7609V34.7042C33.0361 34.8266 33.0591 34.9414 33.105 35.0485C33.2733 35.4693 33.763 35.6758 34.1991 35.5534L34.727 35.301" stroke="#D36563" stroke-width="0.268511" stroke-linecap="round" stroke-linejoin="round"/>
<path d="M30.3075 31.3914C30.3075 31.9116 29.8867 32.3324 29.3665 32.3324C28.8462 32.3324 28.4254 31.9116 28.4254 31.3914C28.4254 30.8711 28.8462 30.4503 29.3665 30.4503C29.8867 30.4503 30.3075 30.8711 30.3075 31.3914Z" fill="#1A1A1A"/>
<path d="M39.0181 31.3916C39.0181 31.9119 38.5973 32.3327 38.077 32.3327C37.5568 32.3327 37.136 31.9119 37.136 31.3916C37.136 30.8714 37.5568 30.4506 38.077 30.4506C38.5973 30.4506 39.0181 30.8714 39.0181 31.3916Z" fill="#1A1A1A"/>
<path d="M30.2349 37.3821C30.2349 37.3821 32.0175 38.2313 33.8231 38.2313C35.6287 38.2313 37.4114 37.3821 37.4114 37.3821" stroke="#D36563" stroke-width="0.268511" stroke-linecap="round" stroke-linejoin="round"/>
<path d="M31.5625 29.2186L31.5931 28.3149L28.4868 28.3685C28.0966 28.3685 27.7141 28.5139 27.4157 28.7663L26.1763 29.4175L28.2343 29.1115L31.5548 29.211L31.5625 29.2186Z" fill="#602826"/>
<path d="M35.7875 29.2187L35.7566 28.3151L38.8628 28.3686C39.253 28.3686 39.6356 28.514 39.934 28.7665L41.1737 29.4176L39.1157 29.1116L35.7952 29.2111L35.7875 29.2187Z" fill="#602826"/>
<path d="M37.7024 18.373C37.7694 18.5057 37.7874 18.6643 37.7281 18.8653C36.996 21.3504 35.6195 23.7078 33.6642 25.4413C33.6539 25.4504 33.6449 25.4594 33.6346 25.4671C33.5753 25.52 33.5147 25.5702 33.4541 25.6218C33.293 25.7584 33.128 25.8912 32.9592 26.0188C30.7449 27.6956 27.9582 28.4419 25.2013 28.1622C24.6071 28.1016 23.8325 28.0668 23.3891 27.6119C23.2628 27.4817 23.1945 27.3193 23.2086 27.1363C23.4071 24.5881 24.0026 21.8736 25.7039 19.8823C26.7969 18.6037 28.2573 17.6396 29.8761 17.1833C29.9122 17.173 29.9483 17.1627 29.9857 17.1537C31.3841 16.7773 32.8574 16.7335 34.288 16.9333C34.9518 17.0261 35.6182 17.1472 36.2459 17.3883C36.5565 17.5081 36.8568 17.6576 37.1301 17.8471C37.3672 18.0121 37.5967 18.1616 37.7036 18.373H37.7024Z" fill="#602826"/>
<path d="M43.2877 25.6885C43.0377 23.2254 41.915 20.8603 40.1106 19.1525C40.0912 19.1344 40.0719 19.1164 40.0526 19.0983C39.4983 18.5828 38.8616 18.0505 38.1617 17.7553C37.7763 17.5929 37.2969 17.4962 36.9695 17.7553C35.9422 18.5712 36.2116 20.3628 36.4655 21.4699C36.8251 23.0411 37.4825 24.6651 38.3705 26.0133C38.8397 26.7235 39.3901 27.444 40.1621 27.8436C40.9342 28.2431 41.8003 28.0743 42.5994 27.8655C42.7902 27.8165 43.1021 27.801 43.2568 27.6773C43.2697 27.667 43.28 27.6567 43.289 27.6425C43.4514 27.4092 43.3431 26.8924 43.3405 26.6217C43.3367 26.3098 43.3199 25.9991 43.2877 25.6885Z" fill="#602826"/>
<path d="M57.4085 70.7195C55.1078 71.7262 52.6937 72.5498 50.2435 73.1994C48.8669 73.5667 47.4788 73.8748 46.0906 74.1313C46.0752 73.7021 45.0556 83.0802 44.7115 87.3542C38.4371 90.3663 29.1828 89.834 21.8747 87.3542C21.1374 82.6329 20.2249 72.6194 20.1269 72.8978C20.0973 72.8888 20.0664 72.8797 20.0367 72.8707C19.1126 72.582 17.8314 72.1812 16.4587 71.7481C16.1172 71.6398 15.7692 71.529 15.4199 71.4181C12.284 70.4192 9.02819 69.3507 8.65698 69.0891C9.73837 63.6048 11.9566 56.2967 17.4383 51.9904C19.5508 50.3303 25.0067 48.9886 27.7469 48.598C28.6427 49.6717 31.178 50.4244 32.5752 50.4244C35.7072 50.4244 37.0747 50.5739 39.4914 48.8584C41.5472 49.4771 47.8165 51.3666 50.5837 53.8168C55.1516 57.8627 56.3258 65.4311 57.4085 70.7195Z" fill="#F9713D"/>
<path d="M20.0359 72.8695C19.1117 72.5808 17.8306 72.1799 16.4579 71.7468C16.8201 70.8214 17.1075 69.8689 17.3189 68.8983C18.0291 65.6374 17.9169 62.1651 19.4159 59.1813C18.5717 61.9254 18.9145 64.8757 19.2664 67.7242C19.4778 69.4448 19.6905 71.1694 20.0359 72.8682V72.8695Z" fill="#EF5D30"/>
<path d="M50.242 73.198C48.8654 73.5653 47.4773 73.8733 46.0891 74.1298L46.5389 70.334C46.6214 69.3995 46.7052 68.487 46.798 67.7252C47.1473 64.8768 47.4914 61.9265 46.6472 59.1824C48.1462 62.1649 48.0341 65.6385 48.7442 68.8994C49.0678 70.3856 49.5717 71.833 50.2407 73.1992L50.242 73.198Z" fill="#EF5D30"/>
</g>
</svg>
