<svg width="193" height="198" viewBox="0 0 193 198" fill="none" xmlns="http://www.w3.org/2000/svg">
<g opacity="0.3" filter="url(#filter0_f_4139_29447)">
<ellipse cx="96.3672" cy="171" rx="80" ry="11" fill="#E44B3D" fill-opacity="0.3"/>
</g>
<g clip-path="url(#clip0_4139_29447)">
<path d="M100.602 14.3223L107.343 16.462L97.0259 38.0254L96.6436 37.9039L100.602 14.3223Z" fill="#465059"/>
<path d="M117.041 35.5957C109.657 35.5957 102.655 37.2239 96.3672 40.1369V161.975C100.266 163.298 104.394 164.001 108.615 164.001C111.139 164.001 113.884 163.385 116.36 162.924C118.977 162.438 121.56 161.77 124.059 160.85C133.507 157.374 141.049 150.496 146.133 141.875C147.681 139.248 149.082 136.536 150.386 133.779C155.105 123.793 158.986 113.292 162.999 103.002L163.03 102.925C165.182 97.3736 166.367 91.3361 166.367 85.0209C166.367 57.7247 144.283 35.5964 117.041 35.5964V35.5957Z" fill="#E44B3D"/>
<path d="M75.6935 35.5944C48.4515 35.5944 26.3672 57.7228 26.3672 85.019C26.3672 91.3341 27.5516 97.3716 29.7031 102.923L29.7342 103C33.7469 113.29 37.6279 123.791 42.3477 133.777C43.6506 136.534 45.0519 139.246 46.6007 141.873C51.6842 150.494 59.2267 157.372 68.6747 160.849C71.1745 161.768 73.7568 162.436 76.3737 162.922C78.85 163.383 81.595 164 84.1191 164C88.3402 164 92.4678 163.296 96.3668 161.973V40.1349C90.0781 37.222 83.0759 35.5938 75.6928 35.5938L75.6935 35.5944Z" fill="#E44B3D"/>
<path d="M97.1477 26.8904C97.1477 26.8904 78.9935 36.1525 62.3453 30.3565C45.6956 24.5598 37.1377 5.61719 37.1377 5.61719L97.1477 26.8897V26.8904Z" fill="#35AB91"/>
<path d="M72.2234 1.86771C88.8724 7.6644 97.1477 26.8888 97.1477 26.8888L37.1377 5.61626C37.1377 5.61626 55.5744 -3.92828 72.2234 1.86771Z" fill="#61CB91"/>
</g>
<mask id="mask0_4139_29447" style="mask-type:alpha" maskUnits="userSpaceOnUse" x="26" y="0" width="141" height="164">
<path d="M100.603 14.3242L107.343 16.464L97.0269 38.0273L96.6445 37.9059L100.603 14.3242Z" fill="#465059"/>
<path d="M117.041 35.5938C109.657 35.5938 102.655 37.222 96.3672 40.1349V161.973C100.266 163.296 104.394 164 108.615 164C111.139 164 113.884 163.383 116.36 162.922C118.977 162.436 121.56 161.768 124.059 160.849C133.507 157.372 141.049 150.494 146.133 141.873C147.681 139.246 149.082 136.534 150.386 133.777C155.105 123.791 158.986 113.29 162.999 103L163.03 102.923C165.182 97.3716 166.367 91.3341 166.367 85.019C166.367 57.7228 144.283 35.5944 117.041 35.5944V35.5938Z" fill="#E44B3D"/>
<path d="M75.6935 35.5944C48.4515 35.5944 26.3672 57.7228 26.3672 85.019C26.3672 91.3341 27.5516 97.3716 29.7031 102.923L29.7342 103C33.7469 113.29 37.6279 123.791 42.3477 133.777C43.6506 136.534 45.0519 139.246 46.6007 141.873C51.6842 150.494 59.2267 157.372 68.6747 160.849C71.1745 161.768 73.7568 162.436 76.3737 162.922C78.85 163.383 81.595 164 84.1191 164C88.3402 164 92.4678 163.296 96.3668 161.973V40.1349C90.0781 37.222 83.0759 35.5938 75.6928 35.5938L75.6935 35.5944Z" fill="#E44B3D"/>
<path d="M97.1467 26.8904C97.1467 26.8904 78.9926 36.1525 62.3443 30.3565C45.6946 24.5598 37.1367 5.61719 37.1367 5.61719L97.1467 26.8897V26.8904Z" fill="#35AB91"/>
<path d="M72.2224 1.86771C88.8714 7.6644 97.1467 26.8888 97.1467 26.8888L37.1367 5.61626C37.1367 5.61626 55.5735 -3.92828 72.2224 1.86771Z" fill="#61CB91"/>
</mask>
<g mask="url(#mask0_4139_29447)">
<path d="M70.6253 81.8471C52.8704 74.8499 29.1973 87.4538 19.5801 94.6303H12.3672V-11H184.367V71.7547C178.264 80.7254 161.286 99.7433 142.199 104.049C118.341 109.432 92.8188 90.5935 70.6253 81.8471Z" fill="#3D3D3D" fill-opacity="0.7"/>
</g>
<defs>
<filter id="filter0_f_4139_29447" x="0.367188" y="144" width="192" height="54" filterUnits="userSpaceOnUse" color-interpolation-filters="sRGB">
<feFlood flood-opacity="0" result="BackgroundImageFix"/>
<feBlend mode="normal" in="SourceGraphic" in2="BackgroundImageFix" result="shape"/>
<feGaussianBlur stdDeviation="8" result="effect1_foregroundBlur_4139_29447"/>
</filter>
<clipPath id="clip0_4139_29447">
<rect width="140" height="164" fill="white" transform="translate(26.3672)"/>
</clipPath>
</defs>
</svg>
