<svg width="18" height="16" viewBox="0 0 18 16" fill="none" xmlns="http://www.w3.org/2000/svg">
<g id="ic">
<path id="Vector" d="M12.3689 1.5C11.1393 1.5 9.80328 2.04331 9.0082 3.1378C8.21311 2.04331 6.87705 1.5 5.64754 1.5C3.43443 1.5 1.54098 3.20866 1.5 5.63386C1.5082 5.87008 1.53279 6.20079 1.54918 6.37402C1.92623 9.3189 5.04918 12.0984 8.12295 14.2244C8.38525 14.4055 8.69672 14.5 9 14.5C9.31147 14.5 9.61475 14.4055 9.87705 14.2244C12.959 12.0984 16.082 9.32677 16.4508 6.37402C16.4754 6.20079 16.4918 5.87008 16.5 5.63386C16.4754 3.20866 14.582 1.5 12.3689 1.5Z" stroke="#888888" stroke-width="1.25" stroke-linecap="round" stroke-linejoin="round"/>
</g>
</svg>
