<svg width="20" height="20" viewBox="0 0 20 20" fill="none" xmlns="http://www.w3.org/2000/svg">
<g id="Icon Button / 20px" clip-path="url(#clip0_3224_13169)">
<rect id="bg" opacity="0.23" y="20" width="20" height="20" transform="rotate(-90 0 20)" fill="white"/>
<path id="Star 1" d="M10 2.92096L10.2099 3.05668C10.2098 3.05684 10.2097 3.057 10.2096 3.05716L10.2099 3.05668L10 2.92096ZM10 2.92096L9.79005 3.05668C9.79015 3.05683 9.79025 3.05698 9.79034 3.05713L9.79005 3.05668L10 2.92096ZM7.09822 7.27223L6.90559 6.54739L7.09822 7.27223C7.39846 7.19244 7.65824 7.0037 7.82691 6.7428L10 3.38143L12.1731 6.74281C12.3418 7.0037 12.6015 7.19244 12.9018 7.27223L16.7702 8.30024L14.2448 11.4057C14.0488 11.6467 13.9496 11.9521 13.9665 12.2623L14.1842 16.259L10.4504 14.8169C10.1606 14.705 9.83945 14.705 9.54964 14.8169L5.81581 16.259L6.03351 12.2623C6.05041 11.9521 5.95118 11.6467 5.75517 11.4057L3.22984 8.30024L7.09822 7.27223Z" stroke="#444444" stroke-width="1.5"/>
</g>
<defs>
<clipPath id="clip0_3224_13169">
<rect width="20" height="20" fill="white"/>
</clipPath>
</defs>
</svg>
