<svg width="40" height="40" viewBox="0 0 40 40" fill="none" xmlns="http://www.w3.org/2000/svg">
<rect width="40" height="40" rx="8" fill="#fff"/>
<path d="M29 27C29 30.75 27.8125 32 24.25 32H14.75C11.1875 32 10 30.75 10 27V17H29V27Z" fill="#FF5454"/>
<path d="M16 22.9967C16 23.93 17.0267 24.4783 17.8083 23.9767L18.905 23.2533C19.3017 22.9967 19.8033 22.9967 20.1883 23.2533L21.2267 23.9533C21.9967 24.4667 23.035 23.9183 23.035 22.985V17H16V22.9967Z" fill="#FFCF53"/>
<path d="M13.0923 11.4971C12.7136 11.0654 12.7248 10.4004 13.1257 9.98042L14.707 8.32375C15.1191 7.89208 15.7984 7.89208 16.2105 8.32375L19.2395 11.4971H13.0923Z" fill="#FFCF53"/>
<path d="M20.0273 11.4971L23.0564 8.32375C23.4685 7.89208 24.1478 7.89208 24.5598 8.32375L26.1412 9.98042C26.5421 10.4004 26.5533 11.0654 26.1746 11.4971H20.0273Z" fill="#FFCF53"/>
<path d="M30 14.125C30 15.225 29.4142 16.125 27.7895 16.125H11.2105C9.51947 16.125 9 15.225 9 14.125V13.125C9 12.025 9.51947 11.125 11.2105 11.125H27.7895C29.4142 11.125 30 12.025 30 13.125V14.125Z" fill="#FF5454"/>
</svg>
