<svg width="61" height="60" viewBox="0 0 61 60" fill="none" xmlns="http://www.w3.org/2000/svg">
<g id="visual icon/40/location">
<rect x="0.833374" width="60" height="60" rx="12" fill="#FFC0C0"/>
<g id="visual icon/40/">
<ellipse id="Ellipse 3021" cx="30.8334" cy="45" rx="15" ry="6" fill="#91DF7E"/>
<path id="Subtract" fill-rule="evenodd" clip-rule="evenodd" d="M30.8334 46.5C30.8334 46.5 44.3334 32.7222 44.3334 24.7222C44.3334 16.7222 38.9334 10.5 30.8334 10.5C22.7334 10.5 17.3334 16.7222 17.3334 24.7222C17.3334 32.7222 30.8334 46.5 30.8334 46.5ZM30.8334 30C34.1471 30 36.8334 27.3137 36.8334 24C36.8334 20.6863 34.1471 18 30.8334 18C27.5197 18 24.8334 20.6863 24.8334 24C24.8334 27.3137 27.5197 30 30.8334 30Z" fill="#FF7878"/>
</g>
</g>
</svg>
