<svg width="42" height="42" viewBox="0 0 42 42" fill="none" xmlns="http://www.w3.org/2000/svg">
<g id="Group 1261165611">
<g id="icon_timeline_education_32">
<circle id="Oval" cx="21" cy="21" r="21" fill="#64C1D2"/>
<path id="Rectangle Copy 288" d="M10.5 9.1875H28.5C30.1569 9.1875 31.5 10.5306 31.5 12.1875V32.8125H13.5C11.8431 32.8125 10.5 31.4694 10.5 29.8125V9.1875Z" fill="white"/>
</g>
<rect id="Rectangle" x="14.4375" y="15.75" width="11.8125" height="2.625" rx="1" fill="#64C1D2"/>
<rect id="Rectangle Copy 289" x="14.4375" y="22.3125" width="6.5625" height="2.625" rx="1" fill="#64C1D2"/>
<path id="Rectangle_2" fill-rule="evenodd" clip-rule="evenodd" d="M35.6462 16.4185C36.0367 16.809 36.0367 17.4422 35.6462 17.8327L26.5148 26.9641C26.4119 27.067 26.2878 27.1462 26.1512 27.1962L22.9795 28.3566C22.5799 28.5028 22.1919 28.1148 22.3381 27.7152L23.4985 24.5434C23.5485 24.4068 23.6277 24.2828 23.7305 24.1799L32.862 15.0485C33.2525 14.658 33.8857 14.658 34.2762 15.0485L35.6462 16.4185Z" fill="#147182"/>
</g>
</svg>
