<svg width="64" height="64" viewBox="0 0 64 64" fill="none" xmlns="http://www.w3.org/2000/svg">
<rect width="64" height="64" rx="16" fill="white"/>
<mask id="mask0_4384_6960" style="mask-type:alpha" maskUnits="userSpaceOnUse" x="0" y="0" width="64" height="64">
<rect width="64" height="64" rx="16" fill="#F8F8F8"/>
</mask>
<g mask="url(#mask0_4384_6960)">
<g style="mix-blend-mode:luminosity">
<path d="M27.4006 46.5847H44.9242C45.063 42.1313 44.7935 42.5621 43.6946 39.7182C41.9093 35.0983 43.269 32.7347 42.4803 27.1992C41.6916 21.6636 37.0107 18 31.3659 18C25.721 18 21.0547 21.6563 20.266 27.1992C19.4774 32.7421 19.8533 36.9136 18.866 39.7182C17.2026 44.4433 16.9112 42.1313 17.0499 46.5847H27.4079" fill="#03152F"/>
<path d="M14.0943 54.666C17.4493 51.3693 25.9811 49.666 25.9811 49.666H32.3491H36.1698C36.1698 49.666 44.183 50.6075 48.0566 54.666C51.8565 58.6473 54 67.9993 54 67.9993H9C9 67.9993 10.0903 58.6006 14.0943 54.666Z" fill="#FFC634"/>
<path d="M31.0746 53.1293C28.3946 53.1293 26.166 52.3483 26.166 49.6646L26.166 41.1934H35.8711V49.6646C35.8711 52.3483 33.7547 53.1293 31.0746 53.1293Z" fill="#F4A293"/>
<path d="M26.166 43.6508C26.166 43.6508 27.831 47.6142 30.6644 48.4479C31.4238 48.6672 32.2271 48.5941 32.9574 48.2943C34.0235 47.8555 35.6447 46.8684 35.8711 44.8282L35.8857 42.9415C35.8857 42.9415 31.307 47.3437 26.166 43.6435V43.6508Z" fill="#1A1A1A"/>
<path d="M40.2023 29.4668C40.2023 33.3059 39.6692 36.6258 39.1362 38.9804C38.6177 41.2839 37.1499 42.8926 35.0687 44.1869L34.6889 44.4209C32.4909 45.7957 29.6575 45.8249 27.4302 44.5014C25.181 43.1705 23.611 41.4082 23.1217 38.9365C22.2381 34.4393 22.1432 29.4595 22.1432 29.4595C22.1432 29.4595 21.3034 19.7631 31.0377 19.9459C40.7719 20.136 40.195 29.4595 40.195 29.4595L40.2023 29.4668Z" fill="#F4A293"/>
<path d="M22.8315 38.724C21.0059 40.0695 17.8512 33.9416 19.633 32.4864C21.4075 31.0312 22.4664 33.8246 22.4664 33.8246L22.7366 35.5577L23.1747 37.9927L23.2477 38.5046L22.8388 38.7167L22.8315 38.724Z" fill="#F4A293"/>
<path d="M20.2109 34.3354C20.2109 34.3354 21.5327 33.8966 22.4674 35.8418" stroke="#D36563" stroke-width="0.225" stroke-linecap="round" stroke-linejoin="round"/>
<path d="M21.8251 34.8906C21.8251 34.8906 20.3865 35.6584 21.3358 36.8211" stroke="#D36563" stroke-width="0.225" stroke-linecap="round" stroke-linejoin="round"/>
<path d="M39.5538 38.7234C41.3794 40.0689 44.5341 33.941 42.7523 32.4858C40.9778 31.0306 39.9993 33.6924 39.9993 33.6924L39.6122 35.484L39.1741 38.0068L39.0938 38.504L39.5465 38.7161L39.5538 38.7234Z" fill="#F4A293"/>
<path d="M42.1784 34.3354C42.1784 34.3354 40.8566 33.8966 39.9219 35.8418" stroke="#D36563" stroke-width="0.225" stroke-linecap="round" stroke-linejoin="round"/>
<path d="M40.5645 34.8906C40.5645 34.8906 42.0031 35.6584 41.0537 36.8211" stroke="#D36563" stroke-width="0.225" stroke-linecap="round" stroke-linejoin="round"/>
<path d="M30.3691 34.4961V36.3535C30.3691 36.4705 30.391 36.5802 30.4349 36.6825C30.5955 37.0847 31.0629 37.2822 31.4791 37.1652L31.983 36.9239" stroke="#D36563" stroke-width="0.225" stroke-linecap="round" stroke-linejoin="round"/>
<path d="M27.7613 33.1885C27.7613 33.6858 27.3596 34.0879 26.8631 34.0879C26.3665 34.0879 25.9648 33.6858 25.9648 33.1885C25.9648 32.6913 26.3665 32.2891 26.8631 32.2891C27.3596 32.2891 27.7613 32.6913 27.7613 33.1885Z" fill="#1A1A1A"/>
<path d="M36.0699 33.1885C36.0699 33.6858 35.6682 34.0879 35.1716 34.0879C34.6751 34.0879 34.2734 33.6858 34.2734 33.1885C34.2734 32.6913 34.6751 32.2891 35.1716 32.2891C35.6682 32.2891 36.0699 32.6913 36.0699 33.1885Z" fill="#1A1A1A"/>
<path d="M27.6875 38.9141C27.6875 38.9141 29.389 39.7258 31.1124 39.7258C32.8358 39.7258 34.5373 38.9141 34.5373 38.9141" stroke="#D36563" stroke-width="0.225" stroke-linecap="round" stroke-linejoin="round"/>
<path d="M33.4724 31.1616C32.8542 31.2201 32.748 30.7173 32.7423 30.4303C32.7366 30.1433 32.9877 29.6406 33.6887 29.6406C34.934 29.6407 35.9233 29.6918 35.9233 29.6918C36.2957 29.6918 36.6609 29.8308 36.9457 30.0721C36.9457 30.0721 38.0073 31.0081 37.854 31.1616C37.7006 31.3151 36.1643 31.0081 36.1643 31.0081C36.1643 31.0081 34.713 31.0443 33.4724 31.1616Z" fill="#1A1A1A"/>
<path d="M28.3791 31.1616C28.9974 31.2201 29.1036 30.7173 29.1093 30.4303C29.115 30.1433 28.8639 29.6406 28.1628 29.6406C26.9176 29.6407 25.9283 29.6918 25.9283 29.6918C25.5558 29.6918 25.1907 29.8308 24.9059 30.0721C24.9059 30.0721 23.8443 31.0081 23.9976 31.1616C24.1509 31.3151 25.6873 31.0081 25.6873 31.0081C25.6873 31.0081 27.1386 31.0443 28.3791 31.1616Z" fill="#1A1A1A"/>
<path d="M40.4742 27.0978C39.89 24.1874 37.8891 22.447 37.0055 21.8108C35.9174 20.7285 34.4715 19.8803 32.5509 19.6317C32.5509 19.6317 26.4752 18.9882 24.1895 21.8693C23.2913 22.659 22.0645 24.8894 21.6264 27.0978C21.1444 29.5036 21.546 31.0319 21.8966 31.829L21.9112 32.0703L22.656 35.0684C22.656 35.0684 22.7632 33.183 22.8319 31.975C22.9006 30.7669 23.0078 28.8815 23.0078 28.8815C23.0078 28.8815 28.8011 27.4019 31.0073 25.6304C33.179 27.2728 39.4609 29.5469 39.4609 29.5469L39.6125 35.0684L40.3281 32.4578L40.3573 32.4871C40.3573 32.4871 41.219 30.8491 40.4669 27.0904L40.4742 27.0978Z" fill="#03152F"/>
<path d="M31.2806 20.6562C36.2463 20.6562 39.3913 23.9713 39.3913 23.9713C39.3913 23.9713 35.4187 21.485 31.2806 21.485C27.1425 21.485 23.1699 23.9713 23.1699 23.9713C23.1699 23.9713 26.3149 20.6562 31.2806 20.6562Z" fill="#FFC634"/>
</g>
</g>
</svg>
