<svg width="40" height="40" viewBox="0 0 40 40" fill="none" xmlns="http://www.w3.org/2000/svg">
<rect width="40" height="40" rx="8" fill="#FFF"/>
<path d="M24.3236 18.2035C23.1312 17.0173 20.9259 13.3793 22.6326 9.83314C23.3866 8.26647 25.2259 7.59187 26.7494 8.32509C27.6488 8.75795 28.235 9.58314 28.4057 10.5203C29.2309 10.074 30.2552 10.0124 31.1546 10.4452C32.6781 11.1784 33.2984 13.0368 32.5444 14.6035C30.8377 18.1496 26.6187 18.6957 24.9385 18.4994C24.7462 18.4762 24.4617 18.3393 24.3236 18.2035Z" fill="#FFB2CA"/>
<path d="M19.9091 30.8506C16.8764 30.4833 9.66438 27.7517 8.1833 20.8245C7.52895 17.764 9.42664 14.7712 12.4328 14.1285C14.2075 13.749 15.9671 14.2735 17.2531 15.4167C17.945 13.8698 19.3505 12.6494 21.1252 12.27C24.1313 11.6273 27.0869 13.5824 27.7413 16.6429C29.2224 23.5701 23.7579 29.012 21.1224 30.5912C20.8199 30.7708 20.2586 30.8908 19.9091 30.8506Z" fill="#FE719C"/>
</svg>
