<svg width="35" height="37" viewBox="0 0 35 37" fill="none" xmlns="http://www.w3.org/2000/svg">
<g clip-path="url(#clip0_1290_3088)">
<path d="M10.4863 34.8342V33.4831C15.6085 33.4831 19.4372 32.4999 21.7251 31.9143C22.7953 31.639 23.5018 31.4578 23.9906 31.4578C24.6619 31.4578 25.3909 31.7078 26.235 31.9971C27.3431 32.3778 28.5973 32.8075 30.0678 32.8075C31.1858 32.8075 32.1605 32.1025 32.4906 31.0519C32.6746 30.4676 32.7687 29.9227 32.7687 29.4311V29.2092C32.7687 28.4957 32.072 27.9424 31.367 28.1151L28.3248 28.8834L27.9948 27.5744L31.0383 26.8061C31.2364 26.757 31.4386 26.7317 31.6409 26.7317C33.0074 26.7317 34.1198 27.844 34.1198 29.2106V29.4325C34.1198 30.0617 34.0046 30.7443 33.7785 31.4592C33.2701 33.0744 31.7785 34.1587 30.0678 34.1587C28.3571 34.1587 26.9442 33.6685 25.7982 33.2752C25.0678 33.0252 24.4386 32.8089 23.992 32.8089C23.6732 32.8089 22.926 33.0014 22.0622 33.2219C19.7125 33.8258 15.7799 34.8342 10.4877 34.8342H10.4863Z" fill="#666666"/>
<path d="M24.0807 28.0899L12.5498 27.361L12.6355 26.0127L23.9024 26.7248L27.1889 25.6307C27.6819 25.4664 28.1973 25.3821 28.7184 25.3821C29.8349 25.3821 30.7437 26.2908 30.7437 27.4074V27.7472H29.3925V27.4074C29.3925 27.0352 29.0906 26.7318 28.717 26.7318C28.3434 26.7318 27.9712 26.7922 27.6144 26.9102L24.0793 28.0885L24.0807 28.0899Z" fill="#666666"/>
<path d="M20.1046 27.3231C19.2858 22.7528 17.7914 17.618 17.7773 17.566L19.0737 17.1882C19.0891 17.2402 20.6032 22.4439 21.4347 27.0843L20.1046 27.3231Z" fill="#666666"/>
<path d="M21.179 41.0001L19.8447 40.7922C19.8517 40.7515 20.4725 36.7529 20.6242 32.6953L21.9739 32.7473C21.818 36.8863 21.1846 40.9608 21.179 41.0015V41.0001Z" fill="#666666"/>
<path d="M6.01472 24.2008L4.87988 23.4705C5.14533 23.0576 5.35039 22.7275 5.53016 22.441C6.21415 21.3427 6.52595 20.8413 8.25629 18.7655C8.88972 18.0056 9.37006 17.1447 9.68326 16.2065C11.8925 9.57725 18.0709 5.1236 25.0569 5.1236H27.5555L28.2634 3L29.5443 3.42697L28.5288 6.47472H25.0569C18.6524 6.47472 12.9894 10.5562 10.9628 16.632C10.5962 17.7303 10.0344 18.7388 9.29422 19.6278C7.62287 21.6334 7.34618 22.0787 6.67623 23.1531C6.49365 23.4452 6.28578 23.7795 6.01612 24.1994L6.01472 24.2008Z" fill="#666666"/>
<path d="M15.0229 27.2261L13.9639 26.3876L15.4133 24.5576C16.2476 23.514 16.9695 22.3848 17.5622 21.1994L18.4597 19.4031L19.6675 20.007L18.7701 21.8034C18.1352 23.0744 17.3613 24.2837 16.4695 25.3989L15.0215 27.2275L15.0229 27.2261Z" fill="#666666"/>
<path d="M31.359 19.0851L28.5156 21.9285L29.47 22.8829L32.3134 20.0395L31.359 19.0851Z" fill="#666666"/>
<path d="M6.40967 22.48C4.31945 24.7702 3.21686 30.2723 5.13808 31.9266C7.05929 33.5809 9.68944 34.1232 12.0908 34.1232" stroke="#666666" stroke-width="1.5"/>
<path d="M15.4826 3.42551L14.3319 0.408677" stroke="#0F61FF" stroke-width="1.5"/>
<path d="M8.43132 8.39437L5.53095 5.68084" stroke="#0F61FF" stroke-width="1.5"/>
<path d="M4.6748 16.4319L1.16334 15.5046" stroke="#0F61FF" stroke-width="1.5"/>
<circle cx="15.4866" cy="14" r="5.375" fill="white" stroke="#0F61FF" stroke-width="1.25"/>
<circle opacity="0.1" cx="15.4866" cy="14" r="6" fill="#0F61FF"/>
<circle cx="15.4863" cy="14" r="1.25" fill="#0F61FF"/>
</g>
<defs>
<clipPath id="clip0_1290_3088">
<rect width="34" height="38" fill="white" transform="translate(0.5)"/>
</clipPath>
</defs>
</svg>
