<svg width="20" height="20" viewBox="0 0 20 20" fill="none" xmlns="http://www.w3.org/2000/svg">
<g id="icon/20/call">
<g id="Union">
<mask id="path-1-inside-1_3224_13177" fill="white">
<path fill-rule="evenodd" clip-rule="evenodd" d="M7.80312 8.33911C8.1865 9.2038 8.77328 10.0661 9.54605 10.8388C10.3188 11.6116 11.1811 12.1984 12.0458 12.5818L12.728 11.8995C13.5091 11.1184 14.7754 11.1184 15.5565 11.8995L16.9707 13.3137C17.7517 14.0947 17.7517 15.3611 16.9707 16.1421L16.2636 16.8492C14.3109 18.8019 9.87879 17.5355 6.36407 14.0208C2.84935 10.5061 1.58302 6.07393 3.53564 4.12131L4.24275 3.4142C5.02379 2.63315 6.29013 2.63316 7.07117 3.4142L8.48539 4.82842C9.26644 5.60947 9.26644 6.8758 8.48539 7.65684L7.80312 8.33911Z"/>
</mask>
<path d="M7.80312 8.33911L6.74246 7.27845L6.0147 8.00621L6.43186 8.94709L7.80312 8.33911ZM12.0458 12.5818L11.4378 13.953L12.3787 14.3702L13.1064 13.6424L12.0458 12.5818ZM8.48539 7.65684L9.54605 8.7175L8.48539 7.65684ZM6.43186 8.94709C6.8938 9.98899 7.58885 11.0029 8.48539 11.8995L10.6067 9.77816C9.95771 9.12916 9.47919 8.41862 9.17438 7.73113L6.43186 8.94709ZM8.48539 11.8995C9.38193 12.796 10.3959 13.4911 11.4378 13.953L12.6537 11.2105C11.9663 10.9057 11.2557 10.4272 10.6067 9.77816L8.48539 11.8995ZM13.1064 13.6424L13.7887 12.9601L11.6674 10.8388L10.9851 11.5211L13.1064 13.6424ZM13.7887 12.9601C13.9839 12.7649 14.3005 12.7649 14.4958 12.9601L16.6171 10.8388C15.2503 9.47199 13.0342 9.47199 11.6674 10.8388L13.7887 12.9601ZM14.4958 12.9601L15.91 14.3744L18.0313 12.253L16.6171 10.8388L14.4958 12.9601ZM15.91 14.3744C16.1053 14.5696 16.1053 14.8862 15.91 15.0815L18.0313 17.2028C19.3982 15.836 19.3982 13.6199 18.0313 12.253L15.91 14.3744ZM15.91 15.0815L15.2029 15.7886L17.3242 17.9099L18.0313 17.2028L15.91 15.0815ZM15.2029 15.7886C14.7867 16.2048 13.8707 16.4884 12.3117 16.043C10.8086 15.6135 9.03653 14.572 7.42473 12.9601L5.30341 15.0815C7.20632 16.9844 9.40774 18.3333 11.4875 18.9276C13.5114 19.5058 15.7878 19.4463 17.3242 17.9099L15.2029 15.7886ZM7.42473 12.9601C5.81292 11.3483 4.77135 9.57632 4.34189 8.07319C3.89645 6.51417 4.18009 5.59818 4.5963 5.18197L2.47498 3.06065C0.938563 4.59707 0.87906 6.87346 1.45731 8.89735C2.05154 10.9771 3.4005 13.1786 5.30341 15.0815L7.42473 12.9601ZM4.5963 5.18197L5.30341 4.47486L3.18209 2.35354L2.47498 3.06065L4.5963 5.18197ZM5.30341 4.47486C5.49867 4.2796 5.81525 4.2796 6.01051 4.47486L8.13183 2.35354C6.765 0.986709 4.54892 0.986708 3.18209 2.35354L5.30341 4.47486ZM6.01051 4.47486L7.42473 5.88908L9.54605 3.76776L8.13183 2.35354L6.01051 4.47486ZM7.42473 5.88908C7.61999 6.08434 7.61999 6.40092 7.42473 6.59618L9.54605 8.7175C10.9129 7.35067 10.9129 5.13459 9.54605 3.76776L7.42473 5.88908ZM7.42473 6.59618L6.74246 7.27845L8.86378 9.39977L9.54605 8.7175L7.42473 6.59618Z" fill="#444444" mask="url(#path-1-inside-1_3224_13177)"/>
</g>
<path id="Vector 36" d="M11 5.5C12 5.64583 14.1 6.55 14.5 9" stroke="#444444" stroke-width="1.5" stroke-linecap="round"/>
<path id="Vector 37" d="M11 2.5C12.8571 2.77083 16.7571 4.45 17.5 9" stroke="#444444" stroke-width="1.5" stroke-linecap="round"/>
</g>
</svg>
