<svg width="40" height="36" viewBox="0 0 40 36" fill="none" xmlns="http://www.w3.org/2000/svg">
<g id="Icon Button / 20px">
<g id="ic">
<path id="Vector" d="M27.7607 23.1845L24.3493 26.8865C19.423 23.7301 15.283 19.3805 12.2732 14.1992L16.3498 10.4612C16.6716 10.1689 16.8964 9.77586 16.9915 9.3395C17.0866 8.90314 17.0469 8.44615 16.8784 8.03513L14.0982 1.26025C13.9463 0.883815 13.6918 0.563275 13.3669 0.33934C13.042 0.115405 12.6614 -0.00187321 12.2732 0.00227921H5.96203C5.61322 -0.0129476 5.26535 0.0482509 4.94012 0.181942C4.61489 0.315634 4.31935 0.51887 4.07249 0.778955C3.82564 1.03904 3.63263 1.3503 3.50574 1.69296C3.37885 2.03562 3.32097 2.40223 3.33542 2.76973C3.33542 20.7404 17.2538 35.9976 34.0377 35.9976C34.3865 36.0128 34.7343 35.9517 35.0596 35.818C35.3848 35.6843 35.6803 35.481 35.9272 35.2209C36.1741 34.9608 36.3669 34.6496 36.4937 34.307C36.6206 33.9643 36.6787 33.5976 36.6643 33.2301V26.8325C36.666 26.4076 36.5444 25.9922 36.3157 25.6421C36.0871 25.292 35.7623 25.0239 35.385 24.8737L29.8928 22.6633C29.5288 22.5147 29.1308 22.4849 28.7505 22.5779C28.3702 22.6708 28.0253 22.8822 27.7607 23.1845Z" fill="#287EFF"/>
</g>
</g>
</svg>
