<svg width="281" height="508" viewBox="0 0 281 508" fill="none" xmlns="http://www.w3.org/2000/svg">
<path d="M171.995 109.353C171.365 108.168 170.654 106.989 169.854 105.816C163.723 96.8259 153.22 88.1814 141.904 88.3065C130.487 88.435 121.227 96.3023 115.595 105.787C112.675 110.703 110.574 116.134 109.373 121.735C107.849 128.826 108.756 136.242 109.311 143.464C109.976 152.098 111.001 160.707 112.381 169.256C113.024 173.224 115.253 189.594 115.253 189.594L139.039 196.595L167.12 189.262C167.12 189.262 169.584 169.318 170.54 163.19C172.044 153.557 173.6 143.935 175.212 134.319C176.733 125.236 176.122 117.115 171.998 109.35L171.995 109.353Z" fill="#F4A293"/>
<path d="M119.868 266.265C111.276 266.265 104.461 273.543 104.944 282.197L110.086 373.002C110.379 380.054 116.124 385.609 123.129 385.609C130.34 385.609 136.171 379.706 136.171 372.445L134.774 281.1C134.653 272.882 128.011 266.282 119.868 266.265Z" fill="#FFC1B6"/>
<path d="M110.294 373.977L118.316 474.567H136.552L136.051 372.862C136.051 365.567 130.099 359.699 122.871 359.838C115.418 359.995 109.655 366.472 110.294 373.959V373.977Z" fill="#FFC1B6"/>
<path d="M118.404 474.585L119.818 492.589H136.639V474.585H118.404Z" fill="#FFC1B6"/>
<path d="M138.453 490.255L138.677 504.29H86.3163V503.872C86.3163 500.633 88.1623 497.69 91.0435 496.297L116.698 485.972C117.612 485.537 118.803 485.554 119.51 486.303C122.822 489.837 126.463 495.584 136.59 489.35C137.332 488.897 138.281 489.402 138.453 490.255Z" fill="#03152F"/>
<path d="M86.3114 507.981H138.655V504.29H86.3114V507.981Z" fill="#D2D3DE"/>
<path d="M161.137 266.265C169.608 266.265 176.406 273.369 176.078 281.918L172.628 373.002C172.334 380.054 166.589 385.609 159.585 385.609C152.373 385.609 146.542 379.706 146.542 372.445L146.214 281.396C146.18 273.056 152.874 266.282 161.137 266.265Z" fill="#FFC1B6"/>
<path d="M172.422 373.977L164.399 474.567H146.163L146.664 372.862C146.664 365.567 152.616 359.699 159.845 359.838C167.298 359.995 173.06 366.472 172.422 373.959V373.977Z" fill="#FFC1B6"/>
<path d="M164.493 474.586L163.061 492.59H146.257V474.586H164.493Z" fill="#FFC1B6"/>
<path d="M144.5 490.256L144.276 504.291H196.62V503.873C196.62 500.634 194.774 497.691 191.892 496.298L166.238 485.973C165.324 485.538 164.133 485.555 163.426 486.304C160.113 489.838 156.473 495.584 146.346 489.351C145.604 488.898 144.655 489.403 144.483 490.256H144.5Z" fill="#03152F"/>
<path d="M196.62 504.308H144.276V507.999H196.62V504.308Z" fill="#D2D3DE"/>
<path d="M184.597 234.557C184.235 190.522 167.239 183.336 167.239 183.336H115.023C115.023 183.336 98.3697 190.522 98.0074 234.557C97.6451 278.593 96.5754 331.979 96.5754 331.979H186.029C186.029 331.979 184.977 278.593 184.597 234.557Z" fill="#2B2B2D"/>
<path d="M200.588 80.6453C199.035 70.0333 189.251 62.7025 178.737 64.2699C178.598 64.2912 178.465 64.3187 178.329 64.3431C176.939 63.0379 175.368 61.931 173.658 61.0558C172.159 54.4202 172.05 47.0772 171.673 42.3354C170.603 28.9393 167.654 11.7467 154.774 3.94932C147.311 -0.566869 136.818 -0.551622 129.028 3.67182C117.459 9.94753 114.547 23.0234 113.607 35.1845C113.072 42.1128 113.09 49.0655 112.894 56.012C110.184 54.6642 107.138 53.9049 103.914 53.9049C92.6807 53.9049 83.5711 63.0958 83.5711 74.4366C83.5711 77.5013 84.2418 80.4044 85.4323 83.0177C83.0151 84.5546 80.9968 86.6953 79.6583 89.5709C74.1382 101.409 84.8098 115.247 97.1161 115.207C100.379 123.529 108.978 128.811 118.13 127.445C118.529 127.384 118.925 127.311 119.315 127.228C123.554 134.635 131.965 139.066 140.86 137.743C149.021 136.526 155.408 130.781 157.901 123.407C161.617 125.228 165.893 125.978 170.286 125.322C181.674 123.624 189.608 113.122 188.321 101.665C196.633 98.524 201.938 89.8636 200.591 80.6453H200.588Z" fill="#602826"/>
<path d="M214.713 261.267C214.848 261.731 214.971 262.204 215.069 262.681C215.107 261.608 214.917 260.509 214.801 259.447C214.716 258.655 214.656 257.855 214.764 257.062C214.852 256.397 214.866 255.491 215.569 255.166C216.22 254.867 217.218 255.117 217.813 255.433C218.519 255.817 219.038 256.439 219.445 257.147C219.527 257.291 219.607 257.434 219.679 257.585C219.558 257.152 219.425 256.724 219.268 256.302C218.935 255.407 218.487 254.531 217.751 253.936C217.016 253.341 215.935 253.098 215.114 253.56C214.426 253.95 214.056 254.74 213.897 255.52C213.516 257.431 214.177 259.384 214.715 261.264L214.713 261.267Z" fill="#F9BFBB"/>
<path d="M157.257 92.394C158.928 90.3703 160.566 90.001 162.373 90.3605C163.668 90.6188 165.05 91.2515 166.588 91.916C180.774 98.0457 192.807 108.943 196.194 124.496C200.284 143.262 200.525 143.366 206.602 172.771L208.486 179.11C206.969 174.002 210.003 184.218 208.486 179.11C210.349 185.385 219.216 217.575 221.079 223.85C219.411 218.237 222.746 229.462 221.079 223.85C222.481 228.573 223.961 233.227 224.816 238.088C225.524 242.115 226.063 246.173 226.582 250.23C226.968 253.251 227.339 256.273 227.67 259.301C228.07 262.947 228.499 266.73 227.942 270.373C227.35 274.239 226.152 277.942 225.021 281.668C224.845 282.251 224.663 282.849 224.286 283.323C223.605 284.18 222.115 284.347 221.469 283.346C220.064 281.178 221.022 278.107 221.637 275.822C222.211 273.693 222.909 271.578 223.126 269.375C223.336 267.209 222.873 265.216 222.11 263.193C221.56 261.738 221.07 260.266 220.487 258.815C220.326 258.415 220.154 258.005 219.955 257.612C219.882 257.461 219.803 257.318 219.721 257.174C219.314 256.466 218.8 255.842 218.089 255.461C217.494 255.144 216.495 254.89 215.846 255.193C215.144 255.518 215.13 256.424 215.041 257.089C214.934 257.881 214.994 258.681 215.078 259.473C215.195 260.534 215.387 261.635 215.346 262.706C215.338 262.998 215.31 263.29 215.257 263.579C215.222 263.804 215.163 264.035 215.094 264.258C214.339 266.644 210.987 268.628 209.898 265.329C209.665 264.624 209.608 263.871 209.54 263.128C209.207 259.592 208.143 256.114 208.447 252.559C208.644 250.297 209.082 248.063 209.524 245.838C210.033 243.284 211.737 238.485 212.502 236.071C211.086 233.793 197.204 201.695 194.735 186.502L168.541 136.512C164.167 129.259 159.969 121.898 155.954 114.441C153.71 110.274 153.812 105.826 154.012 101.1C154.143 98.1009 155.342 94.704 157.252 92.3886L157.257 92.394Z" fill="#FFC1B6"/>
<path d="M66.2827 261.267C66.1484 261.731 66.0248 262.204 65.9272 262.681C65.8892 261.608 66.0789 260.509 66.1955 259.447C66.28 258.655 66.3404 257.855 66.2325 257.062C66.1439 256.397 66.1299 255.491 65.4274 255.166C64.7767 254.867 63.7786 255.117 63.1834 255.433C62.4771 255.817 61.9577 256.439 61.5514 257.147C61.469 257.291 61.3896 257.434 61.3168 257.585C61.4378 257.152 61.5714 256.724 61.728 256.302C62.061 255.407 62.5096 254.531 63.2451 253.936C63.9806 253.341 65.0617 253.098 65.8822 253.56C66.5706 253.95 66.9402 254.74 67.0993 255.52C67.4797 257.431 66.8189 259.384 66.2816 261.264L66.2827 261.267Z" fill="#F9BFBB"/>
<path d="M123.739 92.394C122.068 90.3703 120.43 90.001 118.623 90.3605C117.328 90.6188 115.946 91.2515 114.408 91.916C100.222 98.0457 88.1896 108.943 84.8018 124.496C80.7119 143.262 80.4709 143.366 74.3944 172.771L72.5099 179.11C74.0268 174.002 70.9931 184.218 72.5099 179.11C70.6469 185.385 61.7805 217.575 59.9175 223.85C61.5846 218.237 58.2503 229.462 59.9175 223.85C58.5151 228.573 57.0347 233.227 56.1805 238.088C55.4723 242.115 54.9328 246.173 54.4139 250.23C54.028 253.251 53.6567 256.273 53.326 259.301C52.9258 262.947 52.4967 266.73 53.054 270.373C53.6457 274.239 54.8444 277.942 55.9747 281.668C56.1511 282.251 56.3333 282.849 56.7103 283.323C57.3915 284.18 58.8808 284.347 59.527 283.346C60.9321 281.178 59.9738 278.107 59.3588 275.822C58.7851 273.693 58.0867 271.578 57.87 269.375C57.6598 267.209 58.1233 265.216 58.8865 263.193C59.4357 261.738 59.9264 260.266 60.5089 258.815C60.6704 258.415 60.8419 258.005 61.0409 257.612C61.1137 257.461 61.193 257.318 61.2754 257.174C61.6816 256.466 62.1965 255.842 62.9068 255.461C63.5017 255.144 64.5013 254.89 65.1499 255.193C65.8521 255.518 65.8661 256.423 65.9547 257.089C66.0625 257.881 66.0022 258.681 65.9177 259.473C65.8012 260.534 65.6086 261.635 65.6496 262.706C65.6577 262.998 65.6864 263.29 65.7389 263.579C65.7744 263.804 65.8329 264.035 65.9024 264.258C66.6567 266.644 70.0087 268.628 71.0985 265.329C71.3311 264.624 71.3881 263.871 71.4558 263.128C71.7888 259.592 72.8531 256.114 72.5495 252.559C72.3522 250.297 71.914 248.063 71.472 245.838C70.9626 243.284 69.2586 238.485 68.494 236.071C69.9104 233.793 83.7917 201.695 86.2615 186.502L112.455 136.512C116.829 129.259 121.027 121.898 125.042 114.441C127.286 110.274 127.185 105.826 126.984 101.1C126.854 98.1009 125.654 94.704 123.744 92.3886L123.739 92.394Z" fill="#FFC1B6"/>
<path d="M142.101 92.9347C136.122 92.9347 123.553 93.6813 127.319 83.604C131.085 73.5266 131.267 58.7483 131.267 58.7483H152.344C152.344 58.7483 152.236 73.2168 156.569 84.1507C160.903 95.0845 148.064 92.9347 142.085 92.9347H142.101Z" fill="#FFC1B6"/>
<path d="M131.267 64.2734C131.267 64.2734 134.982 73.1858 141.303 75.0604C142.998 75.5537 144.79 75.3893 146.419 74.7151C148.798 73.7285 152.962 70.9261 152.78 66.9413C152.484 60.4661 154.28 63.0046 154.28 63.0046C154.28 63.0046 142.737 72.5774 131.267 64.2569V64.2734Z" fill="#1A1A1A"/>
<path d="M162.581 32.3726C162.581 41.0055 161.391 48.471 160.202 53.7658C159.045 58.9456 155.77 62.5632 151.127 65.4737L150.28 65.9999C145.376 69.0914 139.054 69.1571 134.085 66.1808C129.067 63.1881 125.564 59.2251 124.473 53.6672C122.501 43.5543 122.29 32.3561 122.29 32.3561C122.29 32.3561 120.416 10.5518 142.134 10.9629C163.851 11.3904 162.564 32.3561 162.564 32.3561L162.581 32.3726Z" fill="#FFC1B6"/>
<path d="M123.821 53.1902C119.748 56.2158 112.709 42.436 116.685 39.1637C120.644 35.8914 123.007 42.1729 123.007 42.1729L123.61 46.07L124.587 51.5458L124.75 52.6968L123.838 53.1737L123.821 53.1902Z" fill="#FFC1B6"/>
<path d="M117.968 43.3242C117.968 43.3242 120.917 42.3376 123.002 46.7116" stroke="#D36563" stroke-width="0.944189" stroke-linecap="round" stroke-linejoin="round"/>
<path d="M121.574 44.574C121.574 44.574 118.362 46.3006 120.482 48.9151" stroke="#D36563" stroke-width="0.944189" stroke-linecap="round" stroke-linejoin="round"/>
<path d="M161.124 53.1895C165.198 56.2151 172.237 42.4353 168.261 39.163C164.302 35.8907 162.118 41.8762 162.118 41.8762L161.255 45.9049L160.277 51.578L160.098 52.6962L161.108 53.173L161.124 53.1895Z" fill="#FFC1B6"/>
<path d="M166.97 43.3235C166.97 43.3235 164.021 42.3369 161.935 46.7109" stroke="#D36563" stroke-width="0.944189" stroke-linecap="round" stroke-linejoin="round"/>
<path d="M163.371 44.5728C163.371 44.5728 166.583 46.2993 164.463 48.9139" stroke="#D36563" stroke-width="0.944189" stroke-linecap="round" stroke-linejoin="round"/>
<path d="M140.636 43.6852V47.8619C140.636 48.125 140.685 48.3716 140.783 48.6018C141.141 49.5062 142.184 49.9502 143.113 49.6871L144.237 49.1445" stroke="#D36563" stroke-width="0.944189" stroke-linecap="round" stroke-linejoin="round"/>
<path d="M134.821 40.7416C134.821 41.8597 133.925 42.7641 132.817 42.7641C131.709 42.7641 130.812 41.8597 130.812 40.7416C130.812 39.6234 131.709 38.719 132.817 38.719C133.925 38.719 134.821 39.6234 134.821 40.7416Z" fill="#1A1A1A"/>
<path d="M153.356 40.7416C153.356 41.8597 152.46 42.7641 151.352 42.7641C150.244 42.7641 149.347 41.8597 149.347 40.7416C149.347 39.6234 150.244 38.719 151.352 38.719C152.46 38.719 153.356 39.6234 153.356 40.7416Z" fill="#1A1A1A"/>
<path d="M134.658 53.6167C134.658 53.6167 138.454 55.4419 142.3 55.4419C146.145 55.4419 149.942 53.6167 149.942 53.6167" stroke="#D36563" stroke-width="0.944189" stroke-linecap="round" stroke-linejoin="round"/>
<path d="M137.492 36.0715L137.557 34.1293L130.942 34.2444C130.111 34.2444 129.296 34.5568 128.66 35.0995L126.021 36.499L130.404 35.8413L137.476 36.0551L137.492 36.0715Z" fill="#602826"/>
<path d="M146.482 36.0714L146.416 34.1293L153.032 34.2444C153.863 34.2444 154.678 34.5568 155.313 35.0995L157.953 36.499L153.57 35.8412L146.499 36.055L146.482 36.0714Z" fill="#602826"/>
<path d="M151.395 7.71521C151.552 8.0293 151.594 8.40438 151.455 8.88009C149.739 14.7594 146.512 20.3368 141.929 24.4382C141.905 24.4596 141.884 24.4809 141.859 24.4992C141.72 24.6242 141.578 24.7432 141.436 24.8651C141.059 25.1884 140.672 25.5025 140.276 25.8044C135.085 29.7717 128.553 31.5373 122.09 30.8755C120.697 30.7322 118.881 30.6499 117.842 29.5734C117.546 29.2655 117.386 28.8812 117.419 28.4482C117.884 22.4195 119.28 15.9974 123.269 11.2861C125.831 8.26106 129.254 5.98009 133.049 4.9006C133.134 4.8762 133.218 4.85181 133.306 4.83046C136.584 3.94003 140.038 3.83635 143.391 4.30901C144.947 4.52857 146.509 4.81521 147.981 5.38545C148.709 5.66905 149.413 6.02278 150.054 6.47105C150.609 6.86137 151.147 7.21511 151.398 7.71521H151.395Z" fill="#602826"/>
<path d="M164.48 25.0231C163.894 19.1957 161.262 13.6 157.032 9.55954C156.987 9.51685 156.941 9.47416 156.896 9.43147C155.597 8.2117 154.104 6.95229 152.464 6.25397C151.56 5.86975 150.436 5.64104 149.669 6.25397C147.261 8.18426 147.892 12.4229 148.487 15.0424C149.33 18.7596 150.871 22.6019 152.953 25.7916C154.053 27.4718 155.343 29.1765 157.153 30.1218C158.963 31.0671 160.993 30.6676 162.866 30.1736C163.314 30.0577 164.045 30.0211 164.407 29.7284C164.438 29.704 164.462 29.6796 164.483 29.6461C164.864 29.0941 164.61 27.8713 164.604 27.2309C164.595 26.493 164.555 25.7581 164.48 25.0231Z" fill="#602826"/>
<path d="M202.24 140.094C196.415 142.666 190.304 144.771 184.101 146.43C180.616 147.369 177.102 148.156 173.588 148.811C173.549 147.715 170.968 171.676 170.096 182.596C154.213 190.292 130.785 188.932 112.284 182.596C110.418 170.533 108.107 144.948 107.859 145.66C107.784 145.637 107.706 145.614 107.631 145.591C105.292 144.853 102.048 143.829 98.5731 142.722C97.7085 142.446 96.8275 142.162 95.9432 141.879C88.0045 139.327 79.7624 136.597 78.8226 135.928C81.5602 121.916 87.1757 103.244 101.053 92.2414C106.401 87.9999 120.213 84.5717 127.15 83.5739C129.418 86.3171 135.836 88.2403 139.373 88.2403C147.302 88.2403 150.764 88.6223 156.882 84.2391C162.086 85.8198 177.957 90.6476 184.962 96.9078C196.526 107.245 199.499 126.583 202.24 140.094Z" fill="#F9713D"/>
<path opacity="0.2" d="M107.635 145.588C105.295 144.85 102.051 143.826 98.576 142.719C99.493 140.355 100.221 137.921 100.756 135.441C102.554 127.11 102.27 118.238 106.065 110.614C103.928 117.625 104.796 125.163 105.687 132.441C106.222 136.838 106.76 141.244 107.635 145.584V145.588Z" fill="#602826"/>
<path opacity="0.2" d="M184.103 146.427C180.618 147.366 177.103 148.153 173.589 148.808L174.727 139.11C174.936 136.722 175.148 134.39 175.383 132.444C176.268 125.166 177.139 117.628 175.001 110.617C178.797 118.238 178.513 127.113 180.311 135.444C181.13 139.241 182.406 142.94 184.099 146.43L184.103 146.427Z" fill="#602826"/>
</svg>
