<svg width="172" height="470" viewBox="0 0 172 470" fill="none" xmlns="http://www.w3.org/2000/svg">
<path d="M124.884 235.991H47.7273L50.2517 196.697H121.512L124.884 235.991Z" fill="#04162E"/>
<path d="M47.7285 235.532L45.4243 326.288C45.1532 334.49 51.693 341.28 59.8593 341.28C67.2463 341.28 73.4473 335.665 74.2266 328.279L83.3078 237.999C84.4091 227.414 76.1581 218.19 65.552 218.19C55.9287 218.19 48.0334 225.848 47.7115 235.515L47.7285 235.532Z" fill="#04162E"/>
<path d="M44.4404 446.093L46.2533 416.193L60.1801 416.261L58.4011 446.11L44.4404 446.093Z" fill="#553D0F"/>
<path d="M43.3758 446.093L25.9758 455.606L16.183 457.529C11.6763 458.414 8.30473 462.175 7.88117 466.753L7.67786 468.897L60.4878 469.135L60.5895 446.161L43.3928 446.076L43.3758 446.093Z" fill="#1A1A1A"/>
<path d="M36.0563 450.654C36.0563 450.654 39.3432 440.205 35.4972 438.469C29.9909 435.984 30.9397 444.868 36.0563 450.654Z" stroke="white" stroke-width="0.403674" stroke-linecap="round" stroke-linejoin="round"/>
<path d="M35.9364 450.586C35.9364 450.586 44.306 443.54 47.3726 446.45C51.7608 450.62 43.2217 453.121 35.9364 450.586Z" stroke="white" stroke-width="0.403674" stroke-linecap="round" stroke-linejoin="round"/>
<path d="M74.2091 328.789L62.722 433.925H42.3571L45.4745 326.747C45.7117 318.647 52.5226 312.316 60.5703 312.707C68.8891 313.116 75.124 320.485 74.1921 328.789H74.2091Z" fill="#04162E"/>
<path d="M124.751 235.532L127.055 326.288C127.326 334.491 120.786 341.281 112.62 341.281C105.233 341.281 99.0317 335.665 98.2523 328.279L89.1711 237.999C88.0699 227.414 96.3209 218.191 106.927 218.191C116.55 218.191 124.446 225.849 124.767 235.515L124.751 235.532Z" fill="#04162E"/>
<path d="M127.103 446.094L125.29 416.193L111.346 416.261L113.125 446.111L127.103 446.094Z" fill="#553D0F"/>
<path d="M128.156 446.094L145.556 455.607L155.349 457.53C159.855 458.415 163.227 462.176 163.667 466.753L163.871 468.898L111.061 469.136L110.959 446.162L128.156 446.077V446.094Z" fill="#1A1A1A"/>
<path d="M135.49 450.654C135.49 450.654 132.203 440.206 136.049 438.47C141.556 435.985 140.607 444.868 135.49 450.654Z" stroke="white" stroke-width="0.403674" stroke-linecap="round" stroke-linejoin="round"/>
<path d="M135.591 450.586C135.591 450.586 127.222 443.541 124.155 446.451C119.767 450.62 128.306 453.122 135.591 450.586Z" stroke="white" stroke-width="0.403674" stroke-linecap="round" stroke-linejoin="round"/>
<path d="M98.2692 328.79L109.756 433.926H130.121L127.004 326.748C126.767 318.647 119.956 312.316 111.908 312.708C103.589 313.116 97.3543 320.485 98.2862 328.79H98.2692Z" fill="#04162E"/>
<path d="M35.3579 104.086C31.6814 122.516 21.9055 163.683 16.9413 184.359C15.281 191.268 19.3302 198.263 26.1411 200.237C33.3587 202.33 40.8642 197.974 42.6601 190.656L62.4999 109.821C64.2111 101.993 58.9928 94.3178 51.0975 93.0755C43.7614 91.9183 36.798 96.7854 35.341 104.103L35.3579 104.086Z" fill="#007DDC"/>
<path d="M9.6904 269.431C6.33577 268.734 4.18407 265.449 4.87871 262.08L8.08086 246.917C8.7755 243.547 12.0454 241.386 15.4 242.084C18.7547 242.781 20.9064 246.066 20.2117 249.435L17.0096 264.598C16.3149 267.968 13.045 270.129 9.6904 269.431Z" fill="#F3A396"/>
<path d="M19.9398 268.189C18.6691 265.058 17.0426 264.02 17.0426 264.02C17.7034 261.127 15.8058 258.285 12.8917 257.774L10.8247 257.417C8.13082 256.957 5.55555 258.676 4.94562 261.348L4.91174 261.501C4.91174 261.501 1.13354 268.41 0.286413 277.855C-0.814854 290.057 4.33569 296.251 8.13082 296.32C11.7226 296.371 13.7388 282.059 14.5521 276.766L16.7885 282.161C17.0765 282.841 17.7711 283.267 18.4997 283.199C19.296 283.131 19.9229 282.518 20.0245 281.718L20.8039 275.456C21.1088 273.005 20.8716 270.486 19.9567 268.189H19.9398Z" fill="#F3A396"/>
<path d="M16.9256 184.274L0 253.707L25.7019 260.752L42.9155 189.754C44.559 182.249 39.5609 174.914 32.0045 173.723C24.9733 172.617 18.3149 177.263 16.9256 184.274Z" fill="#007DDC"/>
<path d="M136.642 104.086C140.319 122.516 150.094 163.683 155.059 184.359C156.719 191.268 152.67 198.263 145.859 200.237C138.641 202.33 131.136 197.974 129.34 190.656L109.5 109.821C107.789 101.993 113.007 94.3178 120.902 93.0755C128.238 91.9183 135.202 96.7854 136.659 104.103L136.642 104.086Z" fill="#007DDC"/>
<path d="M162.309 269.432C165.664 268.734 167.815 265.45 167.121 262.08L163.919 246.917C163.224 243.548 159.954 241.386 156.599 242.084C153.245 242.782 151.093 246.066 151.788 249.436L154.99 264.599C155.685 267.968 158.954 270.129 162.309 269.432Z" fill="#F3A396"/>
<path d="M152.059 268.189C153.329 265.058 154.956 264.02 154.956 264.02C154.295 261.127 156.193 258.285 159.107 257.774L161.174 257.417C163.868 256.957 166.443 258.676 167.053 261.348L167.087 261.501C167.087 261.501 170.865 268.411 171.712 277.855C172.813 290.057 167.663 296.252 163.868 296.32C160.276 296.371 158.26 282.059 157.446 276.766L155.21 282.161C154.922 282.842 154.227 283.267 153.499 283.199C152.702 283.131 152.076 282.518 151.974 281.718L151.195 275.456C150.89 273.005 151.127 270.487 152.042 268.189H152.059Z" fill="#F3A396"/>
<path d="M155.075 184.274L172 253.707L146.298 260.752L129.085 189.754C127.441 182.249 132.439 174.914 139.996 173.723C147.027 172.617 153.685 177.263 155.075 184.274Z" fill="#007DDC"/>
<path d="M99.2172 81.5034L85.8326 81.7076L72.8207 81.5034L44.9332 93.484L50.2532 196.697H85.8326H121.785L127.105 93.484L99.2172 81.5034Z" fill="#007DDC"/>
<path d="M86.5457 99.7976V196.935" stroke="#005F99" stroke-width="0.631837" stroke-miterlimit="10"/>
<path d="M83.9531 110.417C83.9531 111.268 83.2754 111.948 82.4283 111.948C81.5811 111.948 80.9034 111.268 80.9034 110.417C80.9034 109.566 81.5811 108.885 82.4283 108.885C83.2754 108.885 83.9531 109.566 83.9531 110.417Z" fill="#289DE5"/>
<path d="M83.9531 128.49C83.9531 129.341 83.2754 130.021 82.4283 130.021C81.5811 130.021 80.9034 129.341 80.9034 128.49C80.9034 127.639 81.5811 126.958 82.4283 126.958C83.2754 126.958 83.9531 127.639 83.9531 128.49Z" fill="#289DE5"/>
<path d="M83.9531 146.563C83.9531 147.414 83.2754 148.094 82.4283 148.094C81.5811 148.094 80.9034 147.414 80.9034 146.563C80.9034 145.712 81.5811 145.031 82.4283 145.031C83.2754 145.031 83.9531 145.712 83.9531 146.563Z" fill="#289DE5"/>
<path d="M82.4283 166.167C83.2704 166.167 83.9531 165.481 83.9531 164.636C83.9531 163.79 83.2704 163.104 82.4283 163.104C81.5861 163.104 80.9034 163.79 80.9034 164.636C80.9034 165.481 81.5861 166.167 82.4283 166.167Z" fill="#289DE5"/>
<path d="M83.9531 182.709C83.9531 183.56 83.2754 184.24 82.4283 184.24C81.5811 184.24 80.9034 183.56 80.9034 182.709C80.9034 181.858 81.5811 181.177 82.4283 181.177C83.2754 181.177 83.9531 181.858 83.9531 182.709Z" fill="#289DE5"/>
<path d="M48.662 166.167L46.4255 122.431" stroke="#005F99" stroke-width="0.631837" stroke-miterlimit="10"/>
<path d="M123.343 166.167L125.58 122.431" stroke="#005F99" stroke-width="0.631837" stroke-miterlimit="10"/>
<path d="M86.4262 97.8406C78.6834 97.8406 72.4147 91.544 72.4147 83.7668V53.8154H100.438V83.7668C100.438 91.544 94.1689 97.8406 86.4262 97.8406Z" fill="#F3A396"/>
<path d="M72.4147 58.8358C72.4147 58.8358 80.1235 73.2329 88.9337 72.5182C102.555 71.429 100.302 54.4792 100.302 54.4792C100.302 54.4792 95.0161 65.7961 86.6634 65.7961C77.345 65.7961 72.4147 58.8358 72.4147 58.8358Z" fill="#1A1A1A"/>
<path d="M62.8241 102.129L77.1575 84.8049L87.0181 98.6915L96.2009 84.8049L113.177 102.129H62.8241Z" fill="#007DDC"/>
<path d="M86.544 97.8405L79.8687 86.0982C78.7674 84.1581 77.2595 82.4734 75.4466 81.18L72.0581 78.7464C71.3465 78.2359 70.3978 78.1849 69.6353 78.6273L66.2129 80.6014C65.4166 81.0609 64.9931 81.9458 65.0947 82.8477L66.501 93.8072C66.6365 94.8964 67.958 95.3218 68.7204 94.539L76.1921 86.6938C76.6157 86.2513 77.3273 86.3194 77.6661 86.8129L86.561 99.7975V97.8405H86.544Z" fill="#289DE5"/>
<path d="M86.5443 97.8405L93.2197 86.0982C94.3209 84.1581 95.8288 82.4734 97.6417 81.18L101.03 78.7464C101.742 78.2359 102.691 78.1849 103.453 78.6273L106.875 80.6014C107.672 81.0609 108.095 81.9458 107.994 82.8477L106.587 93.8072C106.452 94.8964 105.13 95.3218 104.368 94.539L96.8962 86.6938C96.4726 86.2513 95.761 86.3194 95.4222 86.8129L86.5273 99.7975V97.8405H86.5443Z" fill="#289DE5"/>
<path d="M109.672 16.4101C108.52 12.2408 105.826 6.33557 96.2023 1.94496C80.3102 -5.32166 69.5855 10.1135 69.5855 10.1135C65.2991 9.65405 62.9779 11.3048 62.0461 15.1848C61.2498 18.5033 62.3172 24.9701 62.9102 27.4547L66.0784 44.3194L69.145 29.3437C72.1439 19.4904 76.7184 15.4912 76.7184 15.4912L91.2551 14.334L106.656 42.8899L109.655 25.9912C110.027 23.8469 110.197 21.6686 110.078 19.4904C110.01 18.231 109.892 17.1419 109.689 16.4271L109.672 16.4101Z" fill="#1A1A1A"/>
<path d="M106.251 39.4352C106.251 39.4352 108.148 36.406 112.045 37.9036C115.959 39.3842 114.18 48.9141 108.318 50.1394C108.318 50.1394 106.217 50.5989 104.573 49.1524C104.573 49.1524 106.013 42.107 106.234 39.4352H106.251Z" fill="#F3A396"/>
<path d="M111.283 41.256C111.283 41.256 108.013 40.1669 105.692 44.9999" stroke="#D26665" stroke-width="0.438776" stroke-linecap="round" stroke-linejoin="round"/>
<path d="M107.286 42.6345C107.286 42.6345 110.844 44.5405 108.489 47.4165" stroke="#D26665" stroke-width="0.438776" stroke-linecap="round" stroke-linejoin="round"/>
<path d="M66.2648 39.4352C66.2648 39.4352 64.3672 36.406 60.4704 37.9036C56.5567 39.3842 58.3356 48.9141 64.1978 50.1394C64.1978 50.1394 66.2986 50.5989 67.9421 49.1524C67.9421 49.1524 66.502 42.107 66.2817 39.4352H66.2648Z" fill="#F3A396"/>
<path d="M61.2501 41.256C61.2501 41.256 64.52 40.1669 66.8412 44.9999" stroke="#D26665" stroke-width="0.438776" stroke-linecap="round" stroke-linejoin="round"/>
<path d="M65.2497 42.6345C65.2497 42.6345 61.6918 44.5405 64.0468 47.4165" stroke="#D26665" stroke-width="0.438776" stroke-linecap="round" stroke-linejoin="round"/>
<path d="M106.639 30.3819C106.639 36.1339 106.08 48.1485 102.556 55.279C99.2524 61.984 93.7969 65.5748 86.6302 65.796C79.4635 66.0172 74.1436 63.2433 69.874 54.5472C65.6045 45.8511 65.8078 30.484 65.8078 30.484C65.8078 30.484 65.8078 9.96045 86.0034 9.96045C107.266 9.96045 106.639 30.3819 106.639 30.3819Z" fill="#F3A396"/>
<path d="M104.808 12.5301C104.283 12.7003 87.3065 7.98633 87.3065 7.98633L72.414 12.5301C72.414 12.5301 72.414 12.5301 72.414 12.5471C59.3174 16.1038 65.0948 28.5609 65.0948 28.5609C70.4825 25.787 70.0928 20.086 71.1094 15.9847C73.4983 19.133 82.6134 24.868 93.8463 24.6468C105.35 24.4256 106.655 19.9329 106.655 19.9329C106.655 19.9329 105.333 12.3599 104.808 12.5301Z" fill="#1A1A1A"/>
<path d="M84.7987 35.9976V45.1532C84.7987 45.3574 84.8326 45.5446 84.9173 45.7318C85.2053 46.4295 86.0016 46.7699 86.7302 46.5827L88.3058 46.1572" stroke="#D26665" stroke-width="0.438776" stroke-linecap="round" stroke-linejoin="round"/>
<path d="M78.8681 36.7463C78.8681 37.8014 78.021 38.6523 76.9706 38.6523C75.9201 38.6523 75.073 37.8014 75.073 36.7463C75.073 35.6912 75.9201 34.8403 76.9706 34.8403C78.021 34.8403 78.8681 35.6912 78.8681 36.7463Z" fill="#1A1A1A"/>
<path d="M80.7826 32.1345L80.8504 28.4927L74.1242 28.6118C73.2771 28.6118 72.4638 28.9351 71.8031 29.4797L67.9232 32.7471L73.582 31.8962L80.7657 32.1175L80.7826 32.1345Z" fill="#1A1A1A"/>
<path d="M92.4391 36.7463C92.4391 37.8014 93.2862 38.6523 94.3367 38.6523C95.3871 38.6523 96.2342 37.8014 96.2342 36.7463C96.2342 35.6912 95.3871 34.8403 94.3367 34.8403C93.2862 34.8403 92.4391 35.6912 92.4391 36.7463Z" fill="#1A1A1A"/>
<path d="M90.5059 32.1345L90.4381 28.4927L97.1643 28.6118C98.0114 28.6118 98.8247 28.9351 99.4854 29.4797L103.365 32.7471L97.7065 31.8962L90.5228 32.1175L90.5059 32.1345Z" fill="#1A1A1A"/>
<path d="M80.5442 52.4878H90.9808" stroke="#D26665" stroke-width="0.438776" stroke-linecap="round" stroke-linejoin="round"/>
<path d="M83.2729 55.6362C83.2729 55.6362 85.4924 56.334 88.2541 55.6362" stroke="#D26665" stroke-width="0.324694" stroke-linecap="round" stroke-linejoin="round"/>
</svg>
