<svg width="60" height="60" viewBox="0 0 60 60" fill="none" xmlns="http://www.w3.org/2000/svg">
<g id="Frame 71506">
<g id="ico">
<path id="Vector" d="M30 6.17506e-06C13.4315 7.47865e-06 -7.08903e-07 13.4315 9.00541e-07 30C2.50999e-06 46.5685 13.4315 60 30 60C46.5685 60 60 46.5685 60 30C60 13.4315 46.5685 4.87147e-06 30 6.17506e-06Z" fill="#DDE1E4"/>
<g id="Group">
<path id="Fill 1 1" d="M30 37C31.656 37 33 38.344 33 40C33 41.656 31.656 43 30 43C28.344 43 27 41.656 27 40C27 38.344 28.344 37 30 37Z" fill="white"/>
<path id="Vector_2" d="M30 16L30 32" stroke="white" stroke-width="4" stroke-miterlimit="10" stroke-linecap="round"/>
</g>
</g>
</g>
</svg>
