<svg xmlns="http://www.w3.org/2000/svg" width="44.005" height="44.004" viewBox="0 0 44.005 44.004">
  <g id="그룹_8662" data-name="그룹 8662" transform="translate(-3886.006 -3119.995)">
    <rect id="사각형_8493" data-name="사각형 8493" width="31.602" height="31.602" transform="translate(3892.772 3125.643)" fill="rgba(255,0,0,0)"/>
    <g id="그룹_8661" data-name="그룹 8661" transform="translate(3886.004 3119.996)">
      <path id="빼기_5" data-name="빼기 5" d="M15.82,31.658A15.806,15.806,0,0,1,0,15.832l15.825,0,0-15.83a15.823,15.823,0,0,1,11.184,27.02A15.781,15.781,0,0,1,15.82,31.658Z" transform="translate(16.589 43.237) rotate(-120)" fill="#9de0fe"/>
      <path id="빼기_3" data-name="빼기 3" d="M15.832,31.646A15.812,15.812,0,0,1,0,15.823H15.832V0a15.826,15.826,0,0,1,6.163,30.4A15.741,15.741,0,0,1,15.832,31.646Z" transform="translate(38.217 37.441) rotate(180)" fill="#fef19d"/>
      <path id="교차_1" data-name="교차 1" d="M13.843,26.894h-.006l-.068-.009-.039-.005-.028,0a15.738,15.738,0,0,1-3.358-.832q-.344-.127-.682-.27a15.733,15.733,0,0,1-4.186-2.6l0,0-.062-.054-.019-.017-.049-.043-.032-.028-.037-.033-.044-.039L5.2,22.927l-.054-.05-.016-.014L5.069,22.8,5.061,22.8l-.07-.065h0q-.181-.171-.358-.348l-.069-.07-.027-.027-.041-.042-.04-.042-.027-.028-.049-.051-.017-.018L4.3,22.045,4.3,22.037a15.746,15.746,0,0,1-3.054-4.684l-.062-.148-.023-.056A15.743,15.743,0,0,1,.013,11.866v0c0-.03,0-.061,0-.092v-.016q0-.04,0-.079V11.65c0-.022,0-.045,0-.067s0-.027,0-.041,0-.037,0-.056,0-.036,0-.054,0-.028,0-.042,0-.047,0-.071,0-.018,0-.027c0-.033,0-.066,0-.1,0-.008,0-.017,0-.025q0-.036,0-.072c0-.023,0-.046,0-.069S0,11.008,0,11c0-.029,0-.059,0-.088V10.9A15.76,15.76,0,0,1,1.16,5.237q.054-.133.11-.265l.006-.015L1.3,4.913A15.74,15.74,0,0,1,3.6,1.139l.007-.008.05-.06.017-.02L3.716,1,3.742.972,3.775.933,3.81.892l.026-.03L3.877.815,3.9.792,3.946.736,3.959.721,4.015.658,4.023.649l.063-.07h0Q4.354.283,4.637,0L15.826,11.189h0l15.827,0h0c0,.033,0,.066,0,.1,0,.01,0,.02,0,.03s0,.045,0,.068,0,.032,0,.049,0,.032,0,.048,0,.042,0,.062,0,.022,0,.034c0,.026,0,.052,0,.079v.016c0,.03,0,.061,0,.091v0a15.759,15.759,0,0,1-1.151,5.379l-.021.051-.064.154A15.773,15.773,0,0,1,27.285,22.1l-.012.012-.054.057-.025.026-.042.044-.038.039-.03.03-.069.07-.07.069-.028.028-.041.041-.039.038-.031.03-.05.048-.019.018-.062.059-.006.006a15.759,15.759,0,0,1-4.686,3.057q-.335.142-.676.268a15.749,15.749,0,0,1-3.455.849l-.035,0-.035,0a16.148,16.148,0,0,1-3.938,0Z" transform="translate(19.106 2.516) rotate(45)" fill="#fa9568"/>
    </g>
  </g>
</svg>
