<svg xmlns="http://www.w3.org/2000/svg" width="24" height="24" viewBox="0 0 24 24">
  <g id="그룹_8690" data-name="그룹 8690" transform="translate(-1102 -1440)">
    <rect id="사각형_7339" data-name="사각형 7339" width="24" height="24" transform="translate(1102 1440)" fill="rgba(255,0,0,0)"/>
    <g id="그룹_5959" data-name="그룹 5959" transform="translate(-1.451 1.049)">
      <g id="합치기_6" data-name="합치기 6" transform="translate(3005.803 -17642.297) rotate(45)" fill="#fff" stroke-linecap="round">
        <path d="M 12164.0185546875 14848.1875 L 12161.4638671875 14845.6767578125 L 12161.39453125 14845.6083984375 L 12161.3759765625 14845.5966796875 L 12161.3759765625 14830.2841796875 L 12166.625 14830.2841796875 L 12166.625 14845.6044921875 L 12166.6025390625 14845.619140625 L 12166.5390625 14845.681640625 L 12164.0185546875 14848.1875 Z" stroke="none"/>
        <path d="M 12164.015625 14846.95703125 L 12165.75 14845.232421875 L 12165.75 14831.1591796875 L 12162.2509765625 14831.1591796875 L 12162.2509765625 14845.2236328125 L 12164.015625 14846.95703125 M 12164.0224609375 14849.41796875 L 12160.8505859375 14846.30078125 C 12160.6630859375 14846.1845703125 12160.5009765625 14845.9833984375 12160.5009765625 14845.76953125 L 12160.5009765625 14830.04296875 C 12160.5009765625 14829.6923828125 12160.8134765625 14829.4091796875 12161.201171875 14829.4091796875 L 12166.798828125 14829.4091796875 C 12167.1865234375 14829.4091796875 12167.5 14829.6923828125 12167.5 14830.04296875 L 12167.5 14845.76953125 C 12167.5 14845.9765625 12167.337890625 14846.181640625 12167.15625 14846.3017578125 L 12164.0224609375 14849.41796875 Z" stroke="none" fill="#323e5d"/>
      </g>
      <line id="선_63" data-name="선 63" x2="3" y2="3" transform="translate(1116.496 1446.129)" fill="none" stroke="#323e5d" stroke-linecap="round" stroke-width="1.75"/>
      <line id="선_92" data-name="선 92" x2="8" transform="translate(1115.496 1458.256)" fill="none" stroke="#323e5d" stroke-linecap="round" stroke-width="1.75"/>
    </g>
  </g>
</svg>
